<mxfile host="app.diagrams.net" modified="2024-04-08T01:27:40.830Z" agent="Mozilla/5.0 (Windows NT 10.0; Win64; x64; rv:124.0) Gecko/20100101 Firefox/124.0" etag="Tski50RTZpHxxPGig4Xt" version="24.2.2" type="github">
  <diagram name="Página-1" id="0Gto3v17M0flvow-OUyA">
    <mxGraphModel dx="5227" dy="3379" grid="1" gridSize="10" guides="1" tooltips="1" connect="1" arrows="1" fold="1" page="1" pageScale="1" pageWidth="827" pageHeight="1169" math="0" shadow="0">
      <root>
        <mxCell id="0" />
        <mxCell id="1" parent="0" />
        <mxCell id="Jxjm6EtdGCbH2TAaKVnW-1" value="Ecosistema Microservicios" style="swimlane;startSize=20;horizontal=1;containerType=tree;" parent="1" vertex="1">
          <mxGeometry x="-300" y="-950" width="860" height="860" as="geometry" />
        </mxCell>
        <mxCell id="Jxjm6EtdGCbH2TAaKVnW-23" value="" style="shape=image;verticalLabelPosition=bottom;labelBackgroundColor=default;verticalAlign=top;aspect=fixed;imageAspect=0;image=data:image/png,iVBORw0KGgoAAAANSUhEUgAAAZAAAAGQCAMAAAC3Ycb+AAAAAXNSR0IArs4c6QAAAARnQU1BAACxjwv8YQUAAAFWUExURZfJd4bBYnO3SG2zQGyzPm60Qne5T4nCZ53MgKXRi3u7U4TAX7DWmYfBY5HGcHy7VIrDaKzVlG60QYTAYHG2RnG1RZXIdrHXm3q7UpTIc220QH+9WZ7NgofBZKXRina4TYvEarDXmpfJeIO/XqnTj3W4TJPHcq/WmG+1Q4C+W6LPhoC+Wo/FbZXIdajSjqvUknm6UY/Fbny8VZzMfpnLfIXAYXC1RKHPhna4THS3SpjKeHi5T67Wlo3Ea3m6UJrLfZvLfprLe63VlH28V6TQiabRjIjCZYO/X3K2Rq3VlXK2R47FbKDOhJ3NgXu7VJTIdJ/Og67Vl3e5TrHXmqnTkKrTkXW4S5zMf6PQiIK/XYzDaaLPh5LHcbPYnafSjX69WJnKen+9WpDFbnq6UZbJdoG+XKrUkZjKeZDGb5PHc368V57NgbLYnYK+XazUk6HOhbLYnAAAAMWVLBoAAABydFJOU///////////////////////////////////////////////////////////////////////////////////////////////////////////////////////////////////////////////////////AHzXy+gAAAAJcEhZcwAADsMAAA7DAcdvqGQAABLRSURBVHhe7d3nnxw1EsZxwpJMOMDYBJMzGDA5HYfB5HhkDHdkjnSE2///ze2uf+ud1qiDSlVSjT/1feetlkaaZ2e8M90tnbcdXIlAnIlAnIlAnIlAnIlAnIlAnIlAnIlAnIlAnIlAnIlAnIlAnIlAnIlAnIlAnIlAnIlAnIlAnIlAnIlAnIlAnIlAnIlAnIlAnIlAnIlAnIlAnIlAnIlAnIlAnIlAnIlAnIlAnIlAnIlAnIlAnIlAnIlAnIlAnIlAnIlAnIlAnIlAnIlAnIlAnIlAnIlAnIlAnIlAnIlAnIlAnIlAnIlAnIlAnIlAnIlAnIlAnIlAnIlAnIlAnIlAnIlAnIlAnIlAnIlAnIlAnIlAnIlAnIlAnIlAnIlAnIlAnIlAnIlAnIlAnIlAnIlAnIlAnHEWyHnnX3DhVkMXXXzJpTy0E44CuewQz1Jzl1/BEBxwE8iVPDmdXMUwunMSyN94Xjq6mqF05iKQq3lOOnPxXDgYxDU8H/1dy4h66h/IYZ4NF/o/Hd1HcC1PhROHGFY3vQPhefDjQgbWS+dAeBZcYWid9A2Ep8AZBtdH10B4Ary5juF10TOQIzwB7lzOAHvoGMhRpu/Q9Qyxg46BMHmXGGIH/QK5gbm7dCODbK9fIEzdKQbZXrdAbmLmTh1jmM31CuRmJu4W42yuVyBM268jDLS1ToHcwrQdu5WhNtYpECbtGkNtrE8gtzFn125nsG11CeQOpuwco22rSyBM2LsbGG5TPQK5kwm7x3ib6hEI0/Wvx0UPHQK5i+lugA6XmXYIhMluBIbcUPtALmCuG+FKBt1O80DuZqobglG30zwQJrop7mHYzbQO5F4mujHuY+CttA6EaW4QBt5K40Ac3HZQqvEz1PjhmORGYeiNtA3kfua4UR5g8G00DeRBprhhGH0bTQNhgpvmAobfRMtA7O5cO/7Qw1cbXuf1CBNooWUgTE/bcbrfPnEdP1HHA7TQMJBHmZ0yet9zKT/T9hj9N9AwECanK73hiR9ro/cG2gVis2QGnR/g58oep3d7zQJ5gqnpovMVT1JRRu/2mgXCxHQ9ReerbG4DeprezbUK5CkmpovOBx6hpuwZurfWKhCmpetZOh+iqI3erTUK5Dlmpet5eh/6O1VljRanaRPIC0xK2Qt0P/QPqtro3libQJiSNnpPGP2dtfUi/dtqEojV/bZ0nzhJVR3922oSCBNSR/cJq1fI1k08gKkWgRxjQuroP2EWyNZLPIKlFoEwHYnHXz516uQr/GMN/SfGAnnl1Z3ia8f5l8iZBzDVIBD5l+In6WHsW1yqiXwgr1Ot+ivsDbowZB/Ia0ym2Jt0sCebKrVENpC3KO7hZwJ0YMg+EKZS7OBXes/b/HgVpUQuEEr77uHHxewvZDQP5B2mUupd2p/Fz1dRSWQCOfvet098NvkaOjBjHggTKUXrFbdSWUElsR5IZgGs9ygVo70Z60DeZx6FaD2wvlwmhcR6IKeorHqLWinrZWmsA2EaZfILUf6T6gEKifVAKCQolqK1FeNARJcqXkTjFOUD/DyxFshtFFKUCxlfyGgbyAdMosjoNxTUD/DzxFogufOKe6gXorER20CYQpGx14dBILJEbNfINA1EtAUFbTM44AA/T6wFMvG9OUeUMV2WxjQQJlCEphnrJ8spJJb+p77rQ44oQ2MTloF8xPhL0DRn/WYfComSQLZf4pAilhcyGgbyMcMv8QltczhkBYXEeiAXU8kRrdxFWwuGgTD4Ev+gaU7mIyaVxHogW59SyvmMY0oYLktjF8jzDL7A1Fd3n3PMKkqJTCCTv9IcUoSmBuwCYeglaJlzmkMGqCVygWgnYrcsjVkgXzD0ArTM+ZJDhigmsoFs/Ytqxr85pMR7tFVnFggDLzDxH8jI+ihUE/lAppYtkZzTpKk6q0DK/6sc/4Q+Gi7lxEggW59Rz+CIElbL0hgF8inDLkDLdV9xwDoOSIwFMvEQkku5aKrNKBAGXeBLWq75mgMyOCIxHsj4kyi4h+EjmiqzCUTw3yQt10zd284hiYlAxhOhXsJmWRqbQBhygbGP6CeoZ3FMYiqQ0UQk96/QVJdJIN8w4uWeo+Ua6nkck5gMZPRZpFziW5qqMgmEAReg4RrKIzgoMR3I2NkMydq1NFVlEcjTjHe5R2mZojyGoxLTgWx9x2EpyiXuoqkmg0Cy33JMo2Vqbr1MDkvMBLL1Mscl3qVcgqaaDAJhsAXep2Xie8qjOC4xF8jY00i1hMGyNPqBCC4KpGWK6jiOS8wGMtJOcu3c1PkbGf1AGGqBkct0qE7gwMR8ICPv/VSL0FSPeiCCJWZombic6gSOTMwHMtJQcp/CVbRVox4IAy1BywTFKRyZWBCI/CHX0FSNdiCC/eqfoOnQkmseOTSxJJD8tCVroGkvS6MciOQiDpoOZa51X8exiSWB5JuOf688gbZalANhkCXyf/NSnMaxiUWB5E9nUCxyP22V6AYiuaYm+6XpssWcODixKJB82/yZ4hmnaaxDNxCGWISmQ9RmcHBiWSDJHXOgWIa2OlQDkeyGd3YJy1ULbxTl6MSyQGp+ERKj59YkNAMRXSibvWlv4W0lHJ1YGEh2KSHZDqQ0VqEZCMMrQ9shanM4OrEwEMWXyNiX1RKKgZzH8IpkLwV5g+IcDk+0D2RkICKKgTC4MtnHpzaLwxNLA8lumS7cFJbWCvQCeYCxlaHxwDXUZnF8Ymkg2eaCK5J36e2vpxcIQytE44HF68NwfGJxINfTYIBaKVrXUwvkTUZWJnuGh9o8jk8sDuRyGgxQK3WY5tW0Apm4nG3KOzQfoDaP4xOLA8m2l+45Q/NqWoEwrFK5jSC+pTaPBom6QBachsmauHK4iFIgs6e/R9B84Adq82iQWB7Ig7RYdTO1Yh/SQSWlQBhUMZoPUFqABonlgWTf+KmVo30lnUBGF+GbQ/sBSgvQILE8kOwdENTKPUwHdXQCYUjFcpc33EFtAVoklgdS+fuQooM6KoHkVntbJLfoReXz2TEQlW99VQJhQOV+pINVBetx0CJREMhgJUZIbpMGPVTRCOQw4ymX+zOn4DoiWiQKAsldX/EfagIa5w41AmE4AifoYdVN1BagRaIgkNx9ptJFIndoLJHZNxA6GKC0BC0SBYF8QZNV6wvXLUcXNRQCqZgBPQxQWoIWiYJAcoug1GyWdQV9VFAIRLLoD+hhgNIStEgUBJJ7j6nZsFfhwlKFQBiMBD0MUFqCFomCQHLXVEnuE9k3trpjgXMwkIL3nNzypzWBjIyoxDkYyI1UFzgnA/mJsUjQxQClJfKLHxYse5O7A3TjA6mZAF0MUFrifJoMFZxiyu27V7ULP31UqA9EdPUP6GKA0iI0GaK2xA80WVXwN8E6+qhQH8jPjEWCLgYoLZK7xe91akvkvtyUrJ511h10IlcfyI+MRSL31UnJSe3cwm6UFvmFNqvEO1nsoo8K9YGIN37Y8QF9rCpal2N9+82ixchyj/8dNRH6qFAfyCeMReJX+lhVdutlutRe2TfPuXeYudUKJtFHhfpAit4jErkrowr/ajtKszN+46cL0WqAkgx9VOgbSN11cmesfEFYfD8E7QYoydBHhb6B6DwjH/13r93Ri/j3Ykf22iWoiSgstaEQSMU5z2wg0msHy+Vuayu4xmKdwll1hUAeYzQSdDEgvXaw3Nc84qqqz4VTS5ovpBDI74xGYnc31JR4J8piPOBAxSl1jf9CNAKpedfNbuNPzVx2b6WCU/prNG5Z1wjkccYjMNhedZ9geQ4R9d8GjUUYNQKpmQQ9DFR9m1SAhxuiJkIXVVQCKf578wA9DFGzxqMN/EpN4hv6qKISyClGJHAvXQy0ec/KruVQ88UJXdRRCaRiGtlVW0UbQxXjwYaoSeRPl5XSCaRiHnQwRM1U9mO6dIfcXXRRSSkQwfYtyN3UVvcV+EK5j0Dbf1AUOPP9TTWlQOS/04foYIiiJR5piJrA6IaxhbQCkazUfQYdDF1M0U7+fieKAnRQTSsQ+VReo4MhinZ4nCH5O2/ucgkRtUDuY2TF8pdfWr9EnuRxhigK0EE9tUC2n2VoxWifoGiFRxla3213qakdMcvoBSJ+CvOXjJ9P1UZ22bSKj1N0oEAxENlqbDton6BoYmTZBarlsn9CyygGIp7P3bQfkr9/zOMhEndRLZb9jCmkGUhuu9olnqZ9IrMbsZKRz3BUy9FehWYg4pM7NE9RVTey4Z10vZat3+hAhWog0qdw7GINytroPUW1HO116AZyiCGWonnqYcq66Dz1EOViucsv5XQDkf6WvU3zVMXJ4VGf03eKcjnaK1EORLInyq785wLRlqgzsifSd4g/9+Su4K+gHIj494zmayirGd3ug3ox7X3BtAN5lXGWyi1Ds4e6ktHvAMXfndFejXYg4jcZmq+jrmL0PvLFSwWn1PeWVA9E+gSOr5/OAQryJ8N2cUA52uvRD+QYQy31E+3XaV19PX4Vgvhy4pFdQyvoByL+baN5RuFtOCPupLcMjihHe0UGgRSspDDwIu0zai5f2/cnfWVwRLmP6UCRQSDi+eX3z9tTddfGrqnroKXfL4x9KVbFIpBPGW8x2mdJ9hg8MHVG71KOKUcHqiwCkZ95o33WBxwjQRd5HFMuv69YJZNAxHOcfg+Q3kuT3W3qLA4SoANdNoGIL6e5hA5GSG5nzG5KcUC2zcaum+lBl00g8l+7dCGAxCeln0myu/KtkP9FnV2nvJ5RIMu3nEjl1jZe9dXyzRO2tt6g0ajbOVCAHrQZBbJ9IcMuRwcTln7HP/8xWn4B7MgWvvWsAhFtvHwGPUy5b/4CkSULhMpfx2YvELNAaq4FpYcZR8e3AHj/JY6ZJtyRbc9j9KHOLJCKPyeX//bdesuLwytdjrx/1eIzeJ2XjhthF8glDF1i7n/2NV/lL7abci+PJZK9zUiFXSA1L5Gtv+jDTsGuGOs0L1VMGAbyF6MX+Z5OrJT88byOTiwYBlJz+/rE1QgqeBCh7+jFgmUgldOmEwOijd9X0I0J00AqL5fO3+xWT3rx2L7RK2Q0mAZS+RKZ/+ZDRLyF2T76sWEbiPh62X30o0h+OmrfKXqyYRtI7Utka+tKOtIi3MB+RW69eEXGgSisDqf5GUx6/cUqurJiHEjF+Z+zxi6NL3YrHVbJLRevyTqQ+jetHXNnmZapWrL6LDozYx7IcSZS5w96E/tdfBv90MSlSjrMA1F5ieyo+nR899P0Uiu3HYMu+0COMpdqF1xGj6Vqznsk6NGQfSBaL5FdMxel5JzSvLt64mpXLQ0CuYLZ6Cj6GvjUU7RSQreWGgSyfQ/T0XJ42ZdcT6jfMqqyYfqMFoFovmnhwmOTp7Cuf77uUuAR9G6qSSBWK/s8evvJdFuwy35+XefzRkZu93d1TQIxeIl0oLGy+7w2gdR/xeoAczHWJpBz4SXyClMx1iiQcyARJmKtVSCPMq2NpbB3/SKtAtn4lwjTMNcskIoL/z3I7bprolkgm/0SeY5J2GsXyGnmtpGYQwPtAjFY+6oZ9SVmxjUMZIPftJhACy0DsViwr4mJVVLUtQxkY18iDL+JpoG02g9PWW7XdTNNA9nMl8g9DL6NtoGcYI4bhbE30jaQ+ivP29PZDW+xxoFs4JsWA2+ldSDyXZ46mVl8RV3rQDbtJWK0xMy45oH8zEw3BKNup3kgm/USGV/p10r7QP7HXDcCY26ofSDbHzHZDaC3G95iHQLZoDctBtxSj0BeZ7ruSe9/qNEjkE15ibzJcJvqEsi7zNg5RttWl0DqlqVp5RiDbatPIBvxpsVQG+sUiHj9+3ZuZKiNdQpkA14iDLS1XoG8w7TdGtvIz1qvQLy/RNpdqpjoFshlzNwpRtlet0B8X8h4mEG21y8Q129aDLGDjoG8weQdstkaZJGOgfh9iRgvGjepZyBuE2F4XXQNRLydmy1G10fXQHQW3dPG2DrpG4h4t29DjKyXzoH4+3+EYXXTPRCNdUv1VK/tWK1/INu/8GQ4cJohdeQgEK0FXKt9wXC6chHI9p/X8px0dDFj6cxHINvbn3R+lTRa62eel0B2fM9z096RlrfZznAUyI5L23/heNHVz/DgPvgKJEQg3kQgzkQgzkQgzkQgzkQgzkQgzkQgzkQgzkQgzkQgzkQgzkQgzkQgzkQgzkQgzkQgzkQgzkQgzkQgzkQgzkQgzkQgzkQgzkQgzkQgzkQgzkQgzkQgzkQgzkQgzkQgzkQgzkQgzkQgzkQgzkQgzkQgzkQgzkQgzkQgzkQgzkQgzkQgzkQgzkQgzkQgzkQgzkQgzkQgzkQgzkQgzkQgzkQgzkQgzkQgzkQgzkQgzkQgzkQgzkQgzkQgzkQgzkQgzkQgzkQgzkQgzkQgzkQgzkQgzkQgzkQgzkQgzkQgzkQgzkQgzkQgzkQgzkQgrmxv/x9OkuBX/eOsugAAAABJRU5ErkJggg==;" parent="Jxjm6EtdGCbH2TAaKVnW-1" vertex="1">
          <mxGeometry x="290" y="530" width="100" height="100" as="geometry" />
        </mxCell>
        <mxCell id="Jxjm6EtdGCbH2TAaKVnW-28" value="Trabajos de Grado" style="text;html=1;strokeColor=none;fillColor=none;align=center;verticalAlign=middle;whiteSpace=wrap;rounded=0;" parent="Jxjm6EtdGCbH2TAaKVnW-1" vertex="1">
          <mxGeometry x="310" y="270" width="60" height="30" as="geometry" />
        </mxCell>
        <mxCell id="Jxjm6EtdGCbH2TAaKVnW-32" value="Pasantía" style="text;html=1;strokeColor=none;fillColor=none;align=center;verticalAlign=middle;whiteSpace=wrap;rounded=0;" parent="Jxjm6EtdGCbH2TAaKVnW-1" vertex="1">
          <mxGeometry x="310" y="520" width="60" height="30" as="geometry" />
        </mxCell>
        <mxCell id="Jxjm6EtdGCbH2TAaKVnW-37" value="" style="shape=image;verticalLabelPosition=bottom;labelBackgroundColor=default;verticalAlign=top;aspect=fixed;imageAspect=0;image=data:image/png,iVBORw0KGgoAAAANSUhEUgAAAZAAAAGQCAMAAAC3Ycb+AAAAAXNSR0IArs4c6QAAAARnQU1BAACxjwv8YQUAAAFWUExURZfJd4bBYnO3SG2zQGyzPm60Qne5T4nCZ53MgKXRi3u7U4TAX7DWmYfBY5HGcHy7VIrDaKzVlG60QYTAYHG2RnG1RZXIdrHXm3q7UpTIc220QH+9WZ7NgofBZKXRina4TYvEarDXmpfJeIO/XqnTj3W4TJPHcq/WmG+1Q4C+W6LPhoC+Wo/FbZXIdajSjqvUknm6UY/Fbny8VZzMfpnLfIXAYXC1RKHPhna4THS3SpjKeHi5T67Wlo3Ea3m6UJrLfZvLfprLe63VlH28V6TQiabRjIjCZYO/X3K2Rq3VlXK2R47FbKDOhJ3NgXu7VJTIdJ/Og67Vl3e5TrHXmqnTkKrTkXW4S5zMf6PQiIK/XYzDaaLPh5LHcbPYnafSjX69WJnKen+9WpDFbnq6UZbJdoG+XKrUkZjKeZDGb5PHc368V57NgbLYnYK+XazUk6HOhbLYnAAAAMWVLBoAAABydFJOU///////////////////////////////////////////////////////////////////////////////////////////////////////////////////////////////////////////////////////AHzXy+gAAAAJcEhZcwAADsMAAA7DAcdvqGQAABLRSURBVHhe7d3nnxw1EsZxwpJMOMDYBJMzGDA5HYfB5HhkDHdkjnSE2///ze2uf+ud1qiDSlVSjT/1feetlkaaZ2e8M90tnbcdXIlAnIlAnIlAnIlAnIlAnIlAnIlAnIlAnIlAnIlAnIlAnIlAnIlAnIlAnIlAnIlAnIlAnIlAnIlAnIlAnIlAnIlAnIlAnIlAnIlAnIlAnIlAnIlAnIlAnIlAnIlAnIlAnIlAnIlAnIlAnIlAnIlAnIlAnIlAnIlAnIlAnIlAnIlAnIlAnIlAnIlAnIlAnIlAnIlAnIlAnIlAnIlAnIlAnIlAnIlAnIlAnIlAnIlAnIlAnIlAnIlAnIlAnIlAnIlAnIlAnIlAnIlAnIlAnIlAnIlAnIlAnIlAnIlAnIlAnIlAnIlAnIlAnIlAnHEWyHnnX3DhVkMXXXzJpTy0E44CuewQz1Jzl1/BEBxwE8iVPDmdXMUwunMSyN94Xjq6mqF05iKQq3lOOnPxXDgYxDU8H/1dy4h66h/IYZ4NF/o/Hd1HcC1PhROHGFY3vQPhefDjQgbWS+dAeBZcYWid9A2Ep8AZBtdH10B4Ary5juF10TOQIzwB7lzOAHvoGMhRpu/Q9Qyxg46BMHmXGGIH/QK5gbm7dCODbK9fIEzdKQbZXrdAbmLmTh1jmM31CuRmJu4W42yuVyBM268jDLS1ToHcwrQdu5WhNtYpECbtGkNtrE8gtzFn125nsG11CeQOpuwco22rSyBM2LsbGG5TPQK5kwm7x3ib6hEI0/Wvx0UPHQK5i+lugA6XmXYIhMluBIbcUPtALmCuG+FKBt1O80DuZqobglG30zwQJrop7mHYzbQO5F4mujHuY+CttA6EaW4QBt5K40Ac3HZQqvEz1PjhmORGYeiNtA3kfua4UR5g8G00DeRBprhhGH0bTQNhgpvmAobfRMtA7O5cO/7Qw1cbXuf1CBNooWUgTE/bcbrfPnEdP1HHA7TQMJBHmZ0yet9zKT/T9hj9N9AwECanK73hiR9ro/cG2gVis2QGnR/g58oep3d7zQJ5gqnpovMVT1JRRu/2mgXCxHQ9ReerbG4DeprezbUK5CkmpovOBx6hpuwZurfWKhCmpetZOh+iqI3erTUK5Dlmpet5eh/6O1VljRanaRPIC0xK2Qt0P/QPqtro3libQJiSNnpPGP2dtfUi/dtqEojV/bZ0nzhJVR3922oSCBNSR/cJq1fI1k08gKkWgRxjQuroP2EWyNZLPIKlFoEwHYnHXz516uQr/GMN/SfGAnnl1Z3ia8f5l8iZBzDVIBD5l+In6WHsW1yqiXwgr1Ot+ivsDbowZB/Ia0ym2Jt0sCebKrVENpC3KO7hZwJ0YMg+EKZS7OBXes/b/HgVpUQuEEr77uHHxewvZDQP5B2mUupd2p/Fz1dRSWQCOfvet098NvkaOjBjHggTKUXrFbdSWUElsR5IZgGs9ygVo70Z60DeZx6FaD2wvlwmhcR6IKeorHqLWinrZWmsA2EaZfILUf6T6gEKifVAKCQolqK1FeNARJcqXkTjFOUD/DyxFshtFFKUCxlfyGgbyAdMosjoNxTUD/DzxFogufOKe6gXorER20CYQpGx14dBILJEbNfINA1EtAUFbTM44AA/T6wFMvG9OUeUMV2WxjQQJlCEphnrJ8spJJb+p77rQ44oQ2MTloF8xPhL0DRn/WYfComSQLZf4pAilhcyGgbyMcMv8QltczhkBYXEeiAXU8kRrdxFWwuGgTD4Ev+gaU7mIyaVxHogW59SyvmMY0oYLktjF8jzDL7A1Fd3n3PMKkqJTCCTv9IcUoSmBuwCYeglaJlzmkMGqCVygWgnYrcsjVkgXzD0ArTM+ZJDhigmsoFs/Ytqxr85pMR7tFVnFggDLzDxH8jI+ihUE/lAppYtkZzTpKk6q0DK/6sc/4Q+Gi7lxEggW59Rz+CIElbL0hgF8inDLkDLdV9xwDoOSIwFMvEQkku5aKrNKBAGXeBLWq75mgMyOCIxHsj4kyi4h+EjmiqzCUTw3yQt10zd284hiYlAxhOhXsJmWRqbQBhygbGP6CeoZ3FMYiqQ0UQk96/QVJdJIN8w4uWeo+Ua6nkck5gMZPRZpFziW5qqMgmEAReg4RrKIzgoMR3I2NkMydq1NFVlEcjTjHe5R2mZojyGoxLTgWx9x2EpyiXuoqkmg0Cy33JMo2Vqbr1MDkvMBLL1Mscl3qVcgqaaDAJhsAXep2Xie8qjOC4xF8jY00i1hMGyNPqBCC4KpGWK6jiOS8wGMtJOcu3c1PkbGf1AGGqBkct0qE7gwMR8ICPv/VSL0FSPeiCCJWZombic6gSOTMwHMtJQcp/CVbRVox4IAy1BywTFKRyZWBCI/CHX0FSNdiCC/eqfoOnQkmseOTSxJJD8tCVroGkvS6MciOQiDpoOZa51X8exiSWB5JuOf688gbZalANhkCXyf/NSnMaxiUWB5E9nUCxyP22V6AYiuaYm+6XpssWcODixKJB82/yZ4hmnaaxDNxCGWISmQ9RmcHBiWSDJHXOgWIa2OlQDkeyGd3YJy1ULbxTl6MSyQGp+ERKj59YkNAMRXSibvWlv4W0lHJ1YGEh2KSHZDqQ0VqEZCMMrQ9shanM4OrEwEMWXyNiX1RKKgZzH8IpkLwV5g+IcDk+0D2RkICKKgTC4MtnHpzaLwxNLA8lumS7cFJbWCvQCeYCxlaHxwDXUZnF8Ymkg2eaCK5J36e2vpxcIQytE44HF68NwfGJxINfTYIBaKVrXUwvkTUZWJnuGh9o8jk8sDuRyGgxQK3WY5tW0Apm4nG3KOzQfoDaP4xOLA8m2l+45Q/NqWoEwrFK5jSC+pTaPBom6QBachsmauHK4iFIgs6e/R9B84Adq82iQWB7Ig7RYdTO1Yh/SQSWlQBhUMZoPUFqABonlgWTf+KmVo30lnUBGF+GbQ/sBSgvQILE8kOwdENTKPUwHdXQCYUjFcpc33EFtAVoklgdS+fuQooM6KoHkVntbJLfoReXz2TEQlW99VQJhQOV+pINVBetx0CJREMhgJUZIbpMGPVTRCOQw4ymX+zOn4DoiWiQKAsldX/EfagIa5w41AmE4AifoYdVN1BagRaIgkNx9ptJFIndoLJHZNxA6GKC0BC0SBYF8QZNV6wvXLUcXNRQCqZgBPQxQWoIWiYJAcoug1GyWdQV9VFAIRLLoD+hhgNIStEgUBJJ7j6nZsFfhwlKFQBiMBD0MUFqCFomCQHLXVEnuE9k3trpjgXMwkIL3nNzypzWBjIyoxDkYyI1UFzgnA/mJsUjQxQClJfKLHxYse5O7A3TjA6mZAF0MUFrifJoMFZxiyu27V7ULP31UqA9EdPUP6GKA0iI0GaK2xA80WVXwN8E6+qhQH8jPjEWCLgYoLZK7xe91akvkvtyUrJ511h10IlcfyI+MRSL31UnJSe3cwm6UFvmFNqvEO1nsoo8K9YGIN37Y8QF9rCpal2N9+82ixchyj/8dNRH6qFAfyCeMReJX+lhVdutlutRe2TfPuXeYudUKJtFHhfpAit4jErkrowr/ajtKszN+46cL0WqAkgx9VOgbSN11cmesfEFYfD8E7QYoydBHhb6B6DwjH/13r93Ri/j3Ykf22iWoiSgstaEQSMU5z2wg0msHy+Vuayu4xmKdwll1hUAeYzQSdDEgvXaw3Nc84qqqz4VTS5ovpBDI74xGYnc31JR4J8piPOBAxSl1jf9CNAKpedfNbuNPzVx2b6WCU/prNG5Z1wjkccYjMNhedZ9geQ4R9d8GjUUYNQKpmQQ9DFR9m1SAhxuiJkIXVVQCKf578wA9DFGzxqMN/EpN4hv6qKISyClGJHAvXQy0ec/KruVQ88UJXdRRCaRiGtlVW0UbQxXjwYaoSeRPl5XSCaRiHnQwRM1U9mO6dIfcXXRRSSkQwfYtyN3UVvcV+EK5j0Dbf1AUOPP9TTWlQOS/04foYIiiJR5piJrA6IaxhbQCkazUfQYdDF1M0U7+fieKAnRQTSsQ+VReo4MhinZ4nCH5O2/ucgkRtUDuY2TF8pdfWr9EnuRxhigK0EE9tUC2n2VoxWifoGiFRxla3213qakdMcvoBSJ+CvOXjJ9P1UZ22bSKj1N0oEAxENlqbDton6BoYmTZBarlsn9CyygGIp7P3bQfkr9/zOMhEndRLZb9jCmkGUhuu9olnqZ9IrMbsZKRz3BUy9FehWYg4pM7NE9RVTey4Z10vZat3+hAhWog0qdw7GINytroPUW1HO116AZyiCGWonnqYcq66Dz1EOViucsv5XQDkf6WvU3zVMXJ4VGf03eKcjnaK1EORLInyq785wLRlqgzsifSd4g/9+Su4K+gHIj494zmayirGd3ug3ox7X3BtAN5lXGWyi1Ds4e6ktHvAMXfndFejXYg4jcZmq+jrmL0PvLFSwWn1PeWVA9E+gSOr5/OAQryJ8N2cUA52uvRD+QYQy31E+3XaV19PX4Vgvhy4pFdQyvoByL+baN5RuFtOCPupLcMjihHe0UGgRSspDDwIu0zai5f2/cnfWVwRLmP6UCRQSDi+eX3z9tTddfGrqnroKXfL4x9KVbFIpBPGW8x2mdJ9hg8MHVG71KOKUcHqiwCkZ95o33WBxwjQRd5HFMuv69YJZNAxHOcfg+Q3kuT3W3qLA4SoANdNoGIL6e5hA5GSG5nzG5KcUC2zcaum+lBl00g8l+7dCGAxCeln0myu/KtkP9FnV2nvJ5RIMu3nEjl1jZe9dXyzRO2tt6g0ajbOVCAHrQZBbJ9IcMuRwcTln7HP/8xWn4B7MgWvvWsAhFtvHwGPUy5b/4CkSULhMpfx2YvELNAaq4FpYcZR8e3AHj/JY6ZJtyRbc9j9KHOLJCKPyeX//bdesuLwytdjrx/1eIzeJ2XjhthF8glDF1i7n/2NV/lL7abci+PJZK9zUiFXSA1L5Gtv+jDTsGuGOs0L1VMGAbyF6MX+Z5OrJT88byOTiwYBlJz+/rE1QgqeBCh7+jFgmUgldOmEwOijd9X0I0J00AqL5fO3+xWT3rx2L7RK2Q0mAZS+RKZ/+ZDRLyF2T76sWEbiPh62X30o0h+OmrfKXqyYRtI7Utka+tKOtIi3MB+RW69eEXGgSisDqf5GUx6/cUqurJiHEjF+Z+zxi6NL3YrHVbJLRevyTqQ+jetHXNnmZapWrL6LDozYx7IcSZS5w96E/tdfBv90MSlSjrMA1F5ieyo+nR899P0Uiu3HYMu+0COMpdqF1xGj6Vqznsk6NGQfSBaL5FdMxel5JzSvLt64mpXLQ0CuYLZ6Cj6GvjUU7RSQreWGgSyfQ/T0XJ42ZdcT6jfMqqyYfqMFoFovmnhwmOTp7Cuf77uUuAR9G6qSSBWK/s8evvJdFuwy35+XefzRkZu93d1TQIxeIl0oLGy+7w2gdR/xeoAczHWJpBz4SXyClMx1iiQcyARJmKtVSCPMq2NpbB3/SKtAtn4lwjTMNcskIoL/z3I7bprolkgm/0SeY5J2GsXyGnmtpGYQwPtAjFY+6oZ9SVmxjUMZIPftJhACy0DsViwr4mJVVLUtQxkY18iDL+JpoG02g9PWW7XdTNNA9nMl8g9DL6NtoGcYI4bhbE30jaQ+ivP29PZDW+xxoFs4JsWA2+ldSDyXZ46mVl8RV3rQDbtJWK0xMy45oH8zEw3BKNup3kgm/USGV/p10r7QP7HXDcCY26ofSDbHzHZDaC3G95iHQLZoDctBtxSj0BeZ7ruSe9/qNEjkE15ibzJcJvqEsi7zNg5RttWl0DqlqVp5RiDbatPIBvxpsVQG+sUiHj9+3ZuZKiNdQpkA14iDLS1XoG8w7TdGtvIz1qvQLy/RNpdqpjoFshlzNwpRtlet0B8X8h4mEG21y8Q129aDLGDjoG8weQdstkaZJGOgfh9iRgvGjepZyBuE2F4XXQNRLydmy1G10fXQHQW3dPG2DrpG4h4t29DjKyXzoH4+3+EYXXTPRCNdUv1VK/tWK1/INu/8GQ4cJohdeQgEK0FXKt9wXC6chHI9p/X8px0dDFj6cxHINvbn3R+lTRa62eel0B2fM9z096RlrfZznAUyI5L23/heNHVz/DgPvgKJEQg3kQgzkQgzkQgzkQgzkQgzkQgzkQgzkQgzkQgzkQgzkQgzkQgzkQgzkQgzkQgzkQgzkQgzkQgzkQgzkQgzkQgzkQgzkQgzkQgzkQgzkQgzkQgzkQgzkQgzkQgzkQgzkQgzkQgzkQgzkQgzkQgzkQgzkQgzkQgzkQgzkQgzkQgzkQgzkQgzkQgzkQgzkQgzkQgzkQgzkQgzkQgzkQgzkQgzkQgzkQgzkQgzkQgzkQgzkQgzkQgzkQgzkQgzkQgzkQgzkQgzkQgzkQgzkQgzkQgzkQgzkQgzkQgzkQgzkQgzkQgzkQgzkQgzkQgrmxv/x9OkuBX/eOsugAAAABJRU5ErkJggg==;" parent="Jxjm6EtdGCbH2TAaKVnW-1" vertex="1">
          <mxGeometry x="190" y="70" width="100" height="100" as="geometry" />
        </mxCell>
        <mxCell id="Jxjm6EtdGCbH2TAaKVnW-38" value="Microservicio de Información" style="text;html=1;strokeColor=none;fillColor=none;align=center;verticalAlign=middle;whiteSpace=wrap;rounded=0;" parent="Jxjm6EtdGCbH2TAaKVnW-1" vertex="1">
          <mxGeometry x="210" y="50" width="60" height="30" as="geometry" />
        </mxCell>
        <mxCell id="Jxjm6EtdGCbH2TAaKVnW-43" value="" style="endArrow=none;dashed=1;html=1;dashPattern=1 3;strokeWidth=2;rounded=0;entryX=1;entryY=0.5;entryDx=0;entryDy=0;exitX=0;exitY=0.313;exitDx=0;exitDy=0;exitPerimeter=0;" parent="Jxjm6EtdGCbH2TAaKVnW-1" source="Jxjm6EtdGCbH2TAaKVnW-56" edge="1">
          <mxGeometry width="50" height="50" relative="1" as="geometry">
            <mxPoint x="560" y="340" as="sourcePoint" />
            <mxPoint x="390" y="340" as="targetPoint" />
          </mxGeometry>
        </mxCell>
        <mxCell id="Jxjm6EtdGCbH2TAaKVnW-49" value="" style="endArrow=none;dashed=1;html=1;rounded=0;entryX=-0.044;entryY=0.356;entryDx=0;entryDy=0;entryPerimeter=0;fillColor=#fa6800;strokeColor=#C73500;" parent="Jxjm6EtdGCbH2TAaKVnW-1" source="Jxjm6EtdGCbH2TAaKVnW-37" edge="1">
          <mxGeometry width="50" height="50" relative="1" as="geometry">
            <mxPoint x="240" y="340" as="sourcePoint" />
            <mxPoint x="285.60000000000036" y="325.60000000000014" as="targetPoint" />
          </mxGeometry>
        </mxCell>
        <mxCell id="Jxjm6EtdGCbH2TAaKVnW-51" value="" style="endArrow=none;dashed=1;html=1;rounded=0;entryX=0;entryY=0.5;entryDx=0;entryDy=0;fillColor=#fa6800;strokeColor=#C73500;exitX=0.17;exitY=1.084;exitDx=0;exitDy=0;exitPerimeter=0;" parent="Jxjm6EtdGCbH2TAaKVnW-1" source="Jxjm6EtdGCbH2TAaKVnW-37" target="Jxjm6EtdGCbH2TAaKVnW-23" edge="1">
          <mxGeometry width="50" height="50" relative="1" as="geometry">
            <mxPoint x="170" y="300" as="sourcePoint" />
            <mxPoint x="245" y="590" as="targetPoint" />
          </mxGeometry>
        </mxCell>
        <mxCell id="Jxjm6EtdGCbH2TAaKVnW-56" value="" style="image;aspect=fixed;html=1;points=[];align=center;fontSize=12;image=img/lib/azure2/databases/Azure_Database_PostgreSQL_Server.svg;" parent="Jxjm6EtdGCbH2TAaKVnW-1" vertex="1">
          <mxGeometry x="590" y="360" width="48" height="64" as="geometry" />
        </mxCell>
        <mxCell id="Jxjm6EtdGCbH2TAaKVnW-60" value="" style="endArrow=none;dashed=1;html=1;rounded=0;entryX=1;entryY=0.5;entryDx=0;entryDy=0;fillColor=#fa6800;strokeColor=#C73500;" parent="Jxjm6EtdGCbH2TAaKVnW-1" source="Jxjm6EtdGCbH2TAaKVnW-37" target="GHnSLeBRDesazsaObI4B-2" edge="1">
          <mxGeometry width="50" height="50" relative="1" as="geometry">
            <mxPoint x="470" y="160" as="sourcePoint" />
            <mxPoint x="380" y="326" as="targetPoint" />
            <Array as="points">
              <mxPoint x="720" y="120" />
              <mxPoint x="710" y="600" />
            </Array>
          </mxGeometry>
        </mxCell>
        <mxCell id="Jxjm6EtdGCbH2TAaKVnW-62" value="" style="endArrow=none;dashed=1;html=1;rounded=0;fillColor=#fa6800;strokeColor=#C73500;exitX=0.5;exitY=1;exitDx=0;exitDy=0;" parent="Jxjm6EtdGCbH2TAaKVnW-1" edge="1">
          <mxGeometry width="50" height="50" relative="1" as="geometry">
            <mxPoint x="494" y="170" as="sourcePoint" />
            <mxPoint x="388" y="572" as="targetPoint" />
          </mxGeometry>
        </mxCell>
        <mxCell id="Jxjm6EtdGCbH2TAaKVnW-44" value="" style="endArrow=none;dashed=1;html=1;dashPattern=1 3;strokeWidth=2;rounded=0;entryX=1;entryY=0.5;entryDx=0;entryDy=0;exitX=-0.031;exitY=0.643;exitDx=0;exitDy=0;exitPerimeter=0;" parent="Jxjm6EtdGCbH2TAaKVnW-1" source="Jxjm6EtdGCbH2TAaKVnW-56" target="Jxjm6EtdGCbH2TAaKVnW-23" edge="1">
          <mxGeometry width="50" height="50" relative="1" as="geometry">
            <mxPoint x="550" y="580" as="sourcePoint" />
            <mxPoint x="517" y="340" as="targetPoint" />
          </mxGeometry>
        </mxCell>
        <mxCell id="GHnSLeBRDesazsaObI4B-1" value="" style="shape=image;verticalLabelPosition=bottom;labelBackgroundColor=default;verticalAlign=top;aspect=fixed;imageAspect=0;image=data:image/png,iVBORw0KGgoAAAANSUhEUgAAAZAAAAGQCAMAAAC3Ycb+AAAAAXNSR0IArs4c6QAAAARnQU1BAACxjwv8YQUAAAFWUExURZfJd4bBYnO3SG2zQGyzPm60Qne5T4nCZ53MgKXRi3u7U4TAX7DWmYfBY5HGcHy7VIrDaKzVlG60QYTAYHG2RnG1RZXIdrHXm3q7UpTIc220QH+9WZ7NgofBZKXRina4TYvEarDXmpfJeIO/XqnTj3W4TJPHcq/WmG+1Q4C+W6LPhoC+Wo/FbZXIdajSjqvUknm6UY/Fbny8VZzMfpnLfIXAYXC1RKHPhna4THS3SpjKeHi5T67Wlo3Ea3m6UJrLfZvLfprLe63VlH28V6TQiabRjIjCZYO/X3K2Rq3VlXK2R47FbKDOhJ3NgXu7VJTIdJ/Og67Vl3e5TrHXmqnTkKrTkXW4S5zMf6PQiIK/XYzDaaLPh5LHcbPYnafSjX69WJnKen+9WpDFbnq6UZbJdoG+XKrUkZjKeZDGb5PHc368V57NgbLYnYK+XazUk6HOhbLYnAAAAMWVLBoAAABydFJOU///////////////////////////////////////////////////////////////////////////////////////////////////////////////////////////////////////////////////////AHzXy+gAAAAJcEhZcwAADsMAAA7DAcdvqGQAABLRSURBVHhe7d3nnxw1EsZxwpJMOMDYBJMzGDA5HYfB5HhkDHdkjnSE2///ze2uf+ud1qiDSlVSjT/1feetlkaaZ2e8M90tnbcdXIlAnIlAnIlAnIlAnIlAnIlAnIlAnIlAnIlAnIlAnIlAnIlAnIlAnIlAnIlAnIlAnIlAnIlAnIlAnIlAnIlAnIlAnIlAnIlAnIlAnIlAnIlAnIlAnIlAnIlAnIlAnIlAnIlAnIlAnIlAnIlAnIlAnIlAnIlAnIlAnIlAnIlAnIlAnIlAnIlAnIlAnIlAnIlAnIlAnIlAnIlAnIlAnIlAnIlAnIlAnIlAnIlAnIlAnIlAnIlAnIlAnIlAnIlAnIlAnIlAnIlAnIlAnIlAnIlAnIlAnIlAnIlAnIlAnIlAnIlAnIlAnIlAnIlAnHEWyHnnX3DhVkMXXXzJpTy0E44CuewQz1Jzl1/BEBxwE8iVPDmdXMUwunMSyN94Xjq6mqF05iKQq3lOOnPxXDgYxDU8H/1dy4h66h/IYZ4NF/o/Hd1HcC1PhROHGFY3vQPhefDjQgbWS+dAeBZcYWid9A2Ep8AZBtdH10B4Ary5juF10TOQIzwB7lzOAHvoGMhRpu/Q9Qyxg46BMHmXGGIH/QK5gbm7dCODbK9fIEzdKQbZXrdAbmLmTh1jmM31CuRmJu4W42yuVyBM268jDLS1ToHcwrQdu5WhNtYpECbtGkNtrE8gtzFn125nsG11CeQOpuwco22rSyBM2LsbGG5TPQK5kwm7x3ib6hEI0/Wvx0UPHQK5i+lugA6XmXYIhMluBIbcUPtALmCuG+FKBt1O80DuZqobglG30zwQJrop7mHYzbQO5F4mujHuY+CttA6EaW4QBt5K40Ac3HZQqvEz1PjhmORGYeiNtA3kfua4UR5g8G00DeRBprhhGH0bTQNhgpvmAobfRMtA7O5cO/7Qw1cbXuf1CBNooWUgTE/bcbrfPnEdP1HHA7TQMJBHmZ0yet9zKT/T9hj9N9AwECanK73hiR9ro/cG2gVis2QGnR/g58oep3d7zQJ5gqnpovMVT1JRRu/2mgXCxHQ9ReerbG4DeprezbUK5CkmpovOBx6hpuwZurfWKhCmpetZOh+iqI3erTUK5Dlmpet5eh/6O1VljRanaRPIC0xK2Qt0P/QPqtro3libQJiSNnpPGP2dtfUi/dtqEojV/bZ0nzhJVR3922oSCBNSR/cJq1fI1k08gKkWgRxjQuroP2EWyNZLPIKlFoEwHYnHXz516uQr/GMN/SfGAnnl1Z3ia8f5l8iZBzDVIBD5l+In6WHsW1yqiXwgr1Ot+ivsDbowZB/Ia0ym2Jt0sCebKrVENpC3KO7hZwJ0YMg+EKZS7OBXes/b/HgVpUQuEEr77uHHxewvZDQP5B2mUupd2p/Fz1dRSWQCOfvet098NvkaOjBjHggTKUXrFbdSWUElsR5IZgGs9ygVo70Z60DeZx6FaD2wvlwmhcR6IKeorHqLWinrZWmsA2EaZfILUf6T6gEKifVAKCQolqK1FeNARJcqXkTjFOUD/DyxFshtFFKUCxlfyGgbyAdMosjoNxTUD/DzxFogufOKe6gXorER20CYQpGx14dBILJEbNfINA1EtAUFbTM44AA/T6wFMvG9OUeUMV2WxjQQJlCEphnrJ8spJJb+p77rQ44oQ2MTloF8xPhL0DRn/WYfComSQLZf4pAilhcyGgbyMcMv8QltczhkBYXEeiAXU8kRrdxFWwuGgTD4Ev+gaU7mIyaVxHogW59SyvmMY0oYLktjF8jzDL7A1Fd3n3PMKkqJTCCTv9IcUoSmBuwCYeglaJlzmkMGqCVygWgnYrcsjVkgXzD0ArTM+ZJDhigmsoFs/Ytqxr85pMR7tFVnFggDLzDxH8jI+ihUE/lAppYtkZzTpKk6q0DK/6sc/4Q+Gi7lxEggW59Rz+CIElbL0hgF8inDLkDLdV9xwDoOSIwFMvEQkku5aKrNKBAGXeBLWq75mgMyOCIxHsj4kyi4h+EjmiqzCUTw3yQt10zd284hiYlAxhOhXsJmWRqbQBhygbGP6CeoZ3FMYiqQ0UQk96/QVJdJIN8w4uWeo+Ua6nkck5gMZPRZpFziW5qqMgmEAReg4RrKIzgoMR3I2NkMydq1NFVlEcjTjHe5R2mZojyGoxLTgWx9x2EpyiXuoqkmg0Cy33JMo2Vqbr1MDkvMBLL1Mscl3qVcgqaaDAJhsAXep2Xie8qjOC4xF8jY00i1hMGyNPqBCC4KpGWK6jiOS8wGMtJOcu3c1PkbGf1AGGqBkct0qE7gwMR8ICPv/VSL0FSPeiCCJWZombic6gSOTMwHMtJQcp/CVbRVox4IAy1BywTFKRyZWBCI/CHX0FSNdiCC/eqfoOnQkmseOTSxJJD8tCVroGkvS6MciOQiDpoOZa51X8exiSWB5JuOf688gbZalANhkCXyf/NSnMaxiUWB5E9nUCxyP22V6AYiuaYm+6XpssWcODixKJB82/yZ4hmnaaxDNxCGWISmQ9RmcHBiWSDJHXOgWIa2OlQDkeyGd3YJy1ULbxTl6MSyQGp+ERKj59YkNAMRXSibvWlv4W0lHJ1YGEh2KSHZDqQ0VqEZCMMrQ9shanM4OrEwEMWXyNiX1RKKgZzH8IpkLwV5g+IcDk+0D2RkICKKgTC4MtnHpzaLwxNLA8lumS7cFJbWCvQCeYCxlaHxwDXUZnF8Ymkg2eaCK5J36e2vpxcIQytE44HF68NwfGJxINfTYIBaKVrXUwvkTUZWJnuGh9o8jk8sDuRyGgxQK3WY5tW0Apm4nG3KOzQfoDaP4xOLA8m2l+45Q/NqWoEwrFK5jSC+pTaPBom6QBachsmauHK4iFIgs6e/R9B84Adq82iQWB7Ig7RYdTO1Yh/SQSWlQBhUMZoPUFqABonlgWTf+KmVo30lnUBGF+GbQ/sBSgvQILE8kOwdENTKPUwHdXQCYUjFcpc33EFtAVoklgdS+fuQooM6KoHkVntbJLfoReXz2TEQlW99VQJhQOV+pINVBetx0CJREMhgJUZIbpMGPVTRCOQw4ymX+zOn4DoiWiQKAsldX/EfagIa5w41AmE4AifoYdVN1BagRaIgkNx9ptJFIndoLJHZNxA6GKC0BC0SBYF8QZNV6wvXLUcXNRQCqZgBPQxQWoIWiYJAcoug1GyWdQV9VFAIRLLoD+hhgNIStEgUBJJ7j6nZsFfhwlKFQBiMBD0MUFqCFomCQHLXVEnuE9k3trpjgXMwkIL3nNzypzWBjIyoxDkYyI1UFzgnA/mJsUjQxQClJfKLHxYse5O7A3TjA6mZAF0MUFrifJoMFZxiyu27V7ULP31UqA9EdPUP6GKA0iI0GaK2xA80WVXwN8E6+qhQH8jPjEWCLgYoLZK7xe91akvkvtyUrJ511h10IlcfyI+MRSL31UnJSe3cwm6UFvmFNqvEO1nsoo8K9YGIN37Y8QF9rCpal2N9+82ixchyj/8dNRH6qFAfyCeMReJX+lhVdutlutRe2TfPuXeYudUKJtFHhfpAit4jErkrowr/ajtKszN+46cL0WqAkgx9VOgbSN11cmesfEFYfD8E7QYoydBHhb6B6DwjH/13r93Ri/j3Ykf22iWoiSgstaEQSMU5z2wg0msHy+Vuayu4xmKdwll1hUAeYzQSdDEgvXaw3Nc84qqqz4VTS5ovpBDI74xGYnc31JR4J8piPOBAxSl1jf9CNAKpedfNbuNPzVx2b6WCU/prNG5Z1wjkccYjMNhedZ9geQ4R9d8GjUUYNQKpmQQ9DFR9m1SAhxuiJkIXVVQCKf578wA9DFGzxqMN/EpN4hv6qKISyClGJHAvXQy0ec/KruVQ88UJXdRRCaRiGtlVW0UbQxXjwYaoSeRPl5XSCaRiHnQwRM1U9mO6dIfcXXRRSSkQwfYtyN3UVvcV+EK5j0Dbf1AUOPP9TTWlQOS/04foYIiiJR5piJrA6IaxhbQCkazUfQYdDF1M0U7+fieKAnRQTSsQ+VReo4MhinZ4nCH5O2/ucgkRtUDuY2TF8pdfWr9EnuRxhigK0EE9tUC2n2VoxWifoGiFRxla3213qakdMcvoBSJ+CvOXjJ9P1UZ22bSKj1N0oEAxENlqbDton6BoYmTZBarlsn9CyygGIp7P3bQfkr9/zOMhEndRLZb9jCmkGUhuu9olnqZ9IrMbsZKRz3BUy9FehWYg4pM7NE9RVTey4Z10vZat3+hAhWog0qdw7GINytroPUW1HO116AZyiCGWonnqYcq66Dz1EOViucsv5XQDkf6WvU3zVMXJ4VGf03eKcjnaK1EORLInyq785wLRlqgzsifSd4g/9+Su4K+gHIj494zmayirGd3ug3ox7X3BtAN5lXGWyi1Ds4e6ktHvAMXfndFejXYg4jcZmq+jrmL0PvLFSwWn1PeWVA9E+gSOr5/OAQryJ8N2cUA52uvRD+QYQy31E+3XaV19PX4Vgvhy4pFdQyvoByL+baN5RuFtOCPupLcMjihHe0UGgRSspDDwIu0zai5f2/cnfWVwRLmP6UCRQSDi+eX3z9tTddfGrqnroKXfL4x9KVbFIpBPGW8x2mdJ9hg8MHVG71KOKUcHqiwCkZ95o33WBxwjQRd5HFMuv69YJZNAxHOcfg+Q3kuT3W3qLA4SoANdNoGIL6e5hA5GSG5nzG5KcUC2zcaum+lBl00g8l+7dCGAxCeln0myu/KtkP9FnV2nvJ5RIMu3nEjl1jZe9dXyzRO2tt6g0ajbOVCAHrQZBbJ9IcMuRwcTln7HP/8xWn4B7MgWvvWsAhFtvHwGPUy5b/4CkSULhMpfx2YvELNAaq4FpYcZR8e3AHj/JY6ZJtyRbc9j9KHOLJCKPyeX//bdesuLwytdjrx/1eIzeJ2XjhthF8glDF1i7n/2NV/lL7abci+PJZK9zUiFXSA1L5Gtv+jDTsGuGOs0L1VMGAbyF6MX+Z5OrJT88byOTiwYBlJz+/rE1QgqeBCh7+jFgmUgldOmEwOijd9X0I0J00AqL5fO3+xWT3rx2L7RK2Q0mAZS+RKZ/+ZDRLyF2T76sWEbiPh62X30o0h+OmrfKXqyYRtI7Utka+tKOtIi3MB+RW69eEXGgSisDqf5GUx6/cUqurJiHEjF+Z+zxi6NL3YrHVbJLRevyTqQ+jetHXNnmZapWrL6LDozYx7IcSZS5w96E/tdfBv90MSlSjrMA1F5ieyo+nR899P0Uiu3HYMu+0COMpdqF1xGj6Vqznsk6NGQfSBaL5FdMxel5JzSvLt64mpXLQ0CuYLZ6Cj6GvjUU7RSQreWGgSyfQ/T0XJ42ZdcT6jfMqqyYfqMFoFovmnhwmOTp7Cuf77uUuAR9G6qSSBWK/s8evvJdFuwy35+XefzRkZu93d1TQIxeIl0oLGy+7w2gdR/xeoAczHWJpBz4SXyClMx1iiQcyARJmKtVSCPMq2NpbB3/SKtAtn4lwjTMNcskIoL/z3I7bprolkgm/0SeY5J2GsXyGnmtpGYQwPtAjFY+6oZ9SVmxjUMZIPftJhACy0DsViwr4mJVVLUtQxkY18iDL+JpoG02g9PWW7XdTNNA9nMl8g9DL6NtoGcYI4bhbE30jaQ+ivP29PZDW+xxoFs4JsWA2+ldSDyXZ46mVl8RV3rQDbtJWK0xMy45oH8zEw3BKNup3kgm/USGV/p10r7QP7HXDcCY26ofSDbHzHZDaC3G95iHQLZoDctBtxSj0BeZ7ruSe9/qNEjkE15ibzJcJvqEsi7zNg5RttWl0DqlqVp5RiDbatPIBvxpsVQG+sUiHj9+3ZuZKiNdQpkA14iDLS1XoG8w7TdGtvIz1qvQLy/RNpdqpjoFshlzNwpRtlet0B8X8h4mEG21y8Q129aDLGDjoG8weQdstkaZJGOgfh9iRgvGjepZyBuE2F4XXQNRLydmy1G10fXQHQW3dPG2DrpG4h4t29DjKyXzoH4+3+EYXXTPRCNdUv1VK/tWK1/INu/8GQ4cJohdeQgEK0FXKt9wXC6chHI9p/X8px0dDFj6cxHINvbn3R+lTRa62eel0B2fM9z096RlrfZznAUyI5L23/heNHVz/DgPvgKJEQg3kQgzkQgzkQgzkQgzkQgzkQgzkQgzkQgzkQgzkQgzkQgzkQgzkQgzkQgzkQgzkQgzkQgzkQgzkQgzkQgzkQgzkQgzkQgzkQgzkQgzkQgzkQgzkQgzkQgzkQgzkQgzkQgzkQgzkQgzkQgzkQgzkQgzkQgzkQgzkQgzkQgzkQgzkQgzkQgzkQgzkQgzkQgzkQgzkQgzkQgzkQgzkQgzkQgzkQgzkQgzkQgzkQgzkQgzkQgzkQgzkQgzkQgzkQgzkQgzkQgzkQgzkQgzkQgzkQgzkQgzkQgzkQgzkQgzkQgzkQgzkQgzkQgzkQgrmxv/x9OkuBX/eOsugAAAABJRU5ErkJggg==;" parent="Jxjm6EtdGCbH2TAaKVnW-1" vertex="1">
          <mxGeometry x="280" y="290" width="100" height="100" as="geometry" />
        </mxCell>
        <mxCell id="GHnSLeBRDesazsaObI4B-2" value="" style="shape=image;verticalLabelPosition=bottom;labelBackgroundColor=default;verticalAlign=top;aspect=fixed;imageAspect=0;image=data:image/png,iVBORw0KGgoAAAANSUhEUgAAAZAAAAGQCAMAAAC3Ycb+AAAAAXNSR0IArs4c6QAAAARnQU1BAACxjwv8YQUAAAFWUExURZfJd4bBYnO3SG2zQGyzPm60Qne5T4nCZ53MgKXRi3u7U4TAX7DWmYfBY5HGcHy7VIrDaKzVlG60QYTAYHG2RnG1RZXIdrHXm3q7UpTIc220QH+9WZ7NgofBZKXRina4TYvEarDXmpfJeIO/XqnTj3W4TJPHcq/WmG+1Q4C+W6LPhoC+Wo/FbZXIdajSjqvUknm6UY/Fbny8VZzMfpnLfIXAYXC1RKHPhna4THS3SpjKeHi5T67Wlo3Ea3m6UJrLfZvLfprLe63VlH28V6TQiabRjIjCZYO/X3K2Rq3VlXK2R47FbKDOhJ3NgXu7VJTIdJ/Og67Vl3e5TrHXmqnTkKrTkXW4S5zMf6PQiIK/XYzDaaLPh5LHcbPYnafSjX69WJnKen+9WpDFbnq6UZbJdoG+XKrUkZjKeZDGb5PHc368V57NgbLYnYK+XazUk6HOhbLYnAAAAMWVLBoAAABydFJOU///////////////////////////////////////////////////////////////////////////////////////////////////////////////////////////////////////////////////////AHzXy+gAAAAJcEhZcwAADsMAAA7DAcdvqGQAABLRSURBVHhe7d3nnxw1EsZxwpJMOMDYBJMzGDA5HYfB5HhkDHdkjnSE2///ze2uf+ud1qiDSlVSjT/1feetlkaaZ2e8M90tnbcdXIlAnIlAnIlAnIlAnIlAnIlAnIlAnIlAnIlAnIlAnIlAnIlAnIlAnIlAnIlAnIlAnIlAnIlAnIlAnIlAnIlAnIlAnIlAnIlAnIlAnIlAnIlAnIlAnIlAnIlAnIlAnIlAnIlAnIlAnIlAnIlAnIlAnIlAnIlAnIlAnIlAnIlAnIlAnIlAnIlAnIlAnIlAnIlAnIlAnIlAnIlAnIlAnIlAnIlAnIlAnIlAnIlAnIlAnIlAnIlAnIlAnIlAnIlAnIlAnIlAnIlAnIlAnIlAnIlAnIlAnIlAnIlAnIlAnIlAnIlAnIlAnIlAnIlAnHEWyHnnX3DhVkMXXXzJpTy0E44CuewQz1Jzl1/BEBxwE8iVPDmdXMUwunMSyN94Xjq6mqF05iKQq3lOOnPxXDgYxDU8H/1dy4h66h/IYZ4NF/o/Hd1HcC1PhROHGFY3vQPhefDjQgbWS+dAeBZcYWid9A2Ep8AZBtdH10B4Ary5juF10TOQIzwB7lzOAHvoGMhRpu/Q9Qyxg46BMHmXGGIH/QK5gbm7dCODbK9fIEzdKQbZXrdAbmLmTh1jmM31CuRmJu4W42yuVyBM268jDLS1ToHcwrQdu5WhNtYpECbtGkNtrE8gtzFn125nsG11CeQOpuwco22rSyBM2LsbGG5TPQK5kwm7x3ib6hEI0/Wvx0UPHQK5i+lugA6XmXYIhMluBIbcUPtALmCuG+FKBt1O80DuZqobglG30zwQJrop7mHYzbQO5F4mujHuY+CttA6EaW4QBt5K40Ac3HZQqvEz1PjhmORGYeiNtA3kfua4UR5g8G00DeRBprhhGH0bTQNhgpvmAobfRMtA7O5cO/7Qw1cbXuf1CBNooWUgTE/bcbrfPnEdP1HHA7TQMJBHmZ0yet9zKT/T9hj9N9AwECanK73hiR9ro/cG2gVis2QGnR/g58oep3d7zQJ5gqnpovMVT1JRRu/2mgXCxHQ9ReerbG4DeprezbUK5CkmpovOBx6hpuwZurfWKhCmpetZOh+iqI3erTUK5Dlmpet5eh/6O1VljRanaRPIC0xK2Qt0P/QPqtro3libQJiSNnpPGP2dtfUi/dtqEojV/bZ0nzhJVR3922oSCBNSR/cJq1fI1k08gKkWgRxjQuroP2EWyNZLPIKlFoEwHYnHXz516uQr/GMN/SfGAnnl1Z3ia8f5l8iZBzDVIBD5l+In6WHsW1yqiXwgr1Ot+ivsDbowZB/Ia0ym2Jt0sCebKrVENpC3KO7hZwJ0YMg+EKZS7OBXes/b/HgVpUQuEEr77uHHxewvZDQP5B2mUupd2p/Fz1dRSWQCOfvet098NvkaOjBjHggTKUXrFbdSWUElsR5IZgGs9ygVo70Z60DeZx6FaD2wvlwmhcR6IKeorHqLWinrZWmsA2EaZfILUf6T6gEKifVAKCQolqK1FeNARJcqXkTjFOUD/DyxFshtFFKUCxlfyGgbyAdMosjoNxTUD/DzxFogufOKe6gXorER20CYQpGx14dBILJEbNfINA1EtAUFbTM44AA/T6wFMvG9OUeUMV2WxjQQJlCEphnrJ8spJJb+p77rQ44oQ2MTloF8xPhL0DRn/WYfComSQLZf4pAilhcyGgbyMcMv8QltczhkBYXEeiAXU8kRrdxFWwuGgTD4Ev+gaU7mIyaVxHogW59SyvmMY0oYLktjF8jzDL7A1Fd3n3PMKkqJTCCTv9IcUoSmBuwCYeglaJlzmkMGqCVygWgnYrcsjVkgXzD0ArTM+ZJDhigmsoFs/Ytqxr85pMR7tFVnFggDLzDxH8jI+ihUE/lAppYtkZzTpKk6q0DK/6sc/4Q+Gi7lxEggW59Rz+CIElbL0hgF8inDLkDLdV9xwDoOSIwFMvEQkku5aKrNKBAGXeBLWq75mgMyOCIxHsj4kyi4h+EjmiqzCUTw3yQt10zd284hiYlAxhOhXsJmWRqbQBhygbGP6CeoZ3FMYiqQ0UQk96/QVJdJIN8w4uWeo+Ua6nkck5gMZPRZpFziW5qqMgmEAReg4RrKIzgoMR3I2NkMydq1NFVlEcjTjHe5R2mZojyGoxLTgWx9x2EpyiXuoqkmg0Cy33JMo2Vqbr1MDkvMBLL1Mscl3qVcgqaaDAJhsAXep2Xie8qjOC4xF8jY00i1hMGyNPqBCC4KpGWK6jiOS8wGMtJOcu3c1PkbGf1AGGqBkct0qE7gwMR8ICPv/VSL0FSPeiCCJWZombic6gSOTMwHMtJQcp/CVbRVox4IAy1BywTFKRyZWBCI/CHX0FSNdiCC/eqfoOnQkmseOTSxJJD8tCVroGkvS6MciOQiDpoOZa51X8exiSWB5JuOf688gbZalANhkCXyf/NSnMaxiUWB5E9nUCxyP22V6AYiuaYm+6XpssWcODixKJB82/yZ4hmnaaxDNxCGWISmQ9RmcHBiWSDJHXOgWIa2OlQDkeyGd3YJy1ULbxTl6MSyQGp+ERKj59YkNAMRXSibvWlv4W0lHJ1YGEh2KSHZDqQ0VqEZCMMrQ9shanM4OrEwEMWXyNiX1RKKgZzH8IpkLwV5g+IcDk+0D2RkICKKgTC4MtnHpzaLwxNLA8lumS7cFJbWCvQCeYCxlaHxwDXUZnF8Ymkg2eaCK5J36e2vpxcIQytE44HF68NwfGJxINfTYIBaKVrXUwvkTUZWJnuGh9o8jk8sDuRyGgxQK3WY5tW0Apm4nG3KOzQfoDaP4xOLA8m2l+45Q/NqWoEwrFK5jSC+pTaPBom6QBachsmauHK4iFIgs6e/R9B84Adq82iQWB7Ig7RYdTO1Yh/SQSWlQBhUMZoPUFqABonlgWTf+KmVo30lnUBGF+GbQ/sBSgvQILE8kOwdENTKPUwHdXQCYUjFcpc33EFtAVoklgdS+fuQooM6KoHkVntbJLfoReXz2TEQlW99VQJhQOV+pINVBetx0CJREMhgJUZIbpMGPVTRCOQw4ymX+zOn4DoiWiQKAsldX/EfagIa5w41AmE4AifoYdVN1BagRaIgkNx9ptJFIndoLJHZNxA6GKC0BC0SBYF8QZNV6wvXLUcXNRQCqZgBPQxQWoIWiYJAcoug1GyWdQV9VFAIRLLoD+hhgNIStEgUBJJ7j6nZsFfhwlKFQBiMBD0MUFqCFomCQHLXVEnuE9k3trpjgXMwkIL3nNzypzWBjIyoxDkYyI1UFzgnA/mJsUjQxQClJfKLHxYse5O7A3TjA6mZAF0MUFrifJoMFZxiyu27V7ULP31UqA9EdPUP6GKA0iI0GaK2xA80WVXwN8E6+qhQH8jPjEWCLgYoLZK7xe91akvkvtyUrJ511h10IlcfyI+MRSL31UnJSe3cwm6UFvmFNqvEO1nsoo8K9YGIN37Y8QF9rCpal2N9+82ixchyj/8dNRH6qFAfyCeMReJX+lhVdutlutRe2TfPuXeYudUKJtFHhfpAit4jErkrowr/ajtKszN+46cL0WqAkgx9VOgbSN11cmesfEFYfD8E7QYoydBHhb6B6DwjH/13r93Ri/j3Ykf22iWoiSgstaEQSMU5z2wg0msHy+Vuayu4xmKdwll1hUAeYzQSdDEgvXaw3Nc84qqqz4VTS5ovpBDI74xGYnc31JR4J8piPOBAxSl1jf9CNAKpedfNbuNPzVx2b6WCU/prNG5Z1wjkccYjMNhedZ9geQ4R9d8GjUUYNQKpmQQ9DFR9m1SAhxuiJkIXVVQCKf578wA9DFGzxqMN/EpN4hv6qKISyClGJHAvXQy0ec/KruVQ88UJXdRRCaRiGtlVW0UbQxXjwYaoSeRPl5XSCaRiHnQwRM1U9mO6dIfcXXRRSSkQwfYtyN3UVvcV+EK5j0Dbf1AUOPP9TTWlQOS/04foYIiiJR5piJrA6IaxhbQCkazUfQYdDF1M0U7+fieKAnRQTSsQ+VReo4MhinZ4nCH5O2/ucgkRtUDuY2TF8pdfWr9EnuRxhigK0EE9tUC2n2VoxWifoGiFRxla3213qakdMcvoBSJ+CvOXjJ9P1UZ22bSKj1N0oEAxENlqbDton6BoYmTZBarlsn9CyygGIp7P3bQfkr9/zOMhEndRLZb9jCmkGUhuu9olnqZ9IrMbsZKRz3BUy9FehWYg4pM7NE9RVTey4Z10vZat3+hAhWog0qdw7GINytroPUW1HO116AZyiCGWonnqYcq66Dz1EOViucsv5XQDkf6WvU3zVMXJ4VGf03eKcjnaK1EORLInyq785wLRlqgzsifSd4g/9+Su4K+gHIj494zmayirGd3ug3ox7X3BtAN5lXGWyi1Ds4e6ktHvAMXfndFejXYg4jcZmq+jrmL0PvLFSwWn1PeWVA9E+gSOr5/OAQryJ8N2cUA52uvRD+QYQy31E+3XaV19PX4Vgvhy4pFdQyvoByL+baN5RuFtOCPupLcMjihHe0UGgRSspDDwIu0zai5f2/cnfWVwRLmP6UCRQSDi+eX3z9tTddfGrqnroKXfL4x9KVbFIpBPGW8x2mdJ9hg8MHVG71KOKUcHqiwCkZ95o33WBxwjQRd5HFMuv69YJZNAxHOcfg+Q3kuT3W3qLA4SoANdNoGIL6e5hA5GSG5nzG5KcUC2zcaum+lBl00g8l+7dCGAxCeln0myu/KtkP9FnV2nvJ5RIMu3nEjl1jZe9dXyzRO2tt6g0ajbOVCAHrQZBbJ9IcMuRwcTln7HP/8xWn4B7MgWvvWsAhFtvHwGPUy5b/4CkSULhMpfx2YvELNAaq4FpYcZR8e3AHj/JY6ZJtyRbc9j9KHOLJCKPyeX//bdesuLwytdjrx/1eIzeJ2XjhthF8glDF1i7n/2NV/lL7abci+PJZK9zUiFXSA1L5Gtv+jDTsGuGOs0L1VMGAbyF6MX+Z5OrJT88byOTiwYBlJz+/rE1QgqeBCh7+jFgmUgldOmEwOijd9X0I0J00AqL5fO3+xWT3rx2L7RK2Q0mAZS+RKZ/+ZDRLyF2T76sWEbiPh62X30o0h+OmrfKXqyYRtI7Utka+tKOtIi3MB+RW69eEXGgSisDqf5GUx6/cUqurJiHEjF+Z+zxi6NL3YrHVbJLRevyTqQ+jetHXNnmZapWrL6LDozYx7IcSZS5w96E/tdfBv90MSlSjrMA1F5ieyo+nR899P0Uiu3HYMu+0COMpdqF1xGj6Vqznsk6NGQfSBaL5FdMxel5JzSvLt64mpXLQ0CuYLZ6Cj6GvjUU7RSQreWGgSyfQ/T0XJ42ZdcT6jfMqqyYfqMFoFovmnhwmOTp7Cuf77uUuAR9G6qSSBWK/s8evvJdFuwy35+XefzRkZu93d1TQIxeIl0oLGy+7w2gdR/xeoAczHWJpBz4SXyClMx1iiQcyARJmKtVSCPMq2NpbB3/SKtAtn4lwjTMNcskIoL/z3I7bprolkgm/0SeY5J2GsXyGnmtpGYQwPtAjFY+6oZ9SVmxjUMZIPftJhACy0DsViwr4mJVVLUtQxkY18iDL+JpoG02g9PWW7XdTNNA9nMl8g9DL6NtoGcYI4bhbE30jaQ+ivP29PZDW+xxoFs4JsWA2+ldSDyXZ46mVl8RV3rQDbtJWK0xMy45oH8zEw3BKNup3kgm/USGV/p10r7QP7HXDcCY26ofSDbHzHZDaC3G95iHQLZoDctBtxSj0BeZ7ruSe9/qNEjkE15ibzJcJvqEsi7zNg5RttWl0DqlqVp5RiDbatPIBvxpsVQG+sUiHj9+3ZuZKiNdQpkA14iDLS1XoG8w7TdGtvIz1qvQLy/RNpdqpjoFshlzNwpRtlet0B8X8h4mEG21y8Q129aDLGDjoG8weQdstkaZJGOgfh9iRgvGjepZyBuE2F4XXQNRLydmy1G10fXQHQW3dPG2DrpG4h4t29DjKyXzoH4+3+EYXXTPRCNdUv1VK/tWK1/INu/8GQ4cJohdeQgEK0FXKt9wXC6chHI9p/X8px0dDFj6cxHINvbn3R+lTRa62eel0B2fM9z096RlrfZznAUyI5L23/heNHVz/DgPvgKJEQg3kQgzkQgzkQgzkQgzkQgzkQgzkQgzkQgzkQgzkQgzkQgzkQgzkQgzkQgzkQgzkQgzkQgzkQgzkQgzkQgzkQgzkQgzkQgzkQgzkQgzkQgzkQgzkQgzkQgzkQgzkQgzkQgzkQgzkQgzkQgzkQgzkQgzkQgzkQgzkQgzkQgzkQgzkQgzkQgzkQgzkQgzkQgzkQgzkQgzkQgzkQgzkQgzkQgzkQgzkQgzkQgzkQgzkQgzkQgzkQgzkQgzkQgzkQgzkQgzkQgzkQgzkQgzkQgzkQgzkQgzkQgzkQgzkQgzkQgzkQgzkQgzkQgzkQgrmxv/x9OkuBX/eOsugAAAABJRU5ErkJggg==;" parent="Jxjm6EtdGCbH2TAaKVnW-1" vertex="1">
          <mxGeometry x="530" y="550" width="100" height="100" as="geometry" />
        </mxCell>
        <mxCell id="GHnSLeBRDesazsaObI4B-3" value="Correos" style="text;html=1;strokeColor=none;fillColor=none;align=center;verticalAlign=middle;whiteSpace=wrap;rounded=0;" parent="Jxjm6EtdGCbH2TAaKVnW-1" vertex="1">
          <mxGeometry x="550" y="530" width="60" height="30" as="geometry" />
        </mxCell>
        <mxCell id="GHnSLeBRDesazsaObI4B-4" value="" style="shape=image;verticalLabelPosition=bottom;labelBackgroundColor=default;verticalAlign=top;aspect=fixed;imageAspect=0;image=data:image/png,iVBORw0KGgoAAAANSUhEUgAAAZAAAAGQCAMAAAC3Ycb+AAAAAXNSR0IArs4c6QAAAARnQU1BAACxjwv8YQUAAAFWUExURZfJd4bBYnO3SG2zQGyzPm60Qne5T4nCZ53MgKXRi3u7U4TAX7DWmYfBY5HGcHy7VIrDaKzVlG60QYTAYHG2RnG1RZXIdrHXm3q7UpTIc220QH+9WZ7NgofBZKXRina4TYvEarDXmpfJeIO/XqnTj3W4TJPHcq/WmG+1Q4C+W6LPhoC+Wo/FbZXIdajSjqvUknm6UY/Fbny8VZzMfpnLfIXAYXC1RKHPhna4THS3SpjKeHi5T67Wlo3Ea3m6UJrLfZvLfprLe63VlH28V6TQiabRjIjCZYO/X3K2Rq3VlXK2R47FbKDOhJ3NgXu7VJTIdJ/Og67Vl3e5TrHXmqnTkKrTkXW4S5zMf6PQiIK/XYzDaaLPh5LHcbPYnafSjX69WJnKen+9WpDFbnq6UZbJdoG+XKrUkZjKeZDGb5PHc368V57NgbLYnYK+XazUk6HOhbLYnAAAAMWVLBoAAABydFJOU///////////////////////////////////////////////////////////////////////////////////////////////////////////////////////////////////////////////////////AHzXy+gAAAAJcEhZcwAADsMAAA7DAcdvqGQAABLRSURBVHhe7d3nnxw1EsZxwpJMOMDYBJMzGDA5HYfB5HhkDHdkjnSE2///ze2uf+ud1qiDSlVSjT/1feetlkaaZ2e8M90tnbcdXIlAnIlAnIlAnIlAnIlAnIlAnIlAnIlAnIlAnIlAnIlAnIlAnIlAnIlAnIlAnIlAnIlAnIlAnIlAnIlAnIlAnIlAnIlAnIlAnIlAnIlAnIlAnIlAnIlAnIlAnIlAnIlAnIlAnIlAnIlAnIlAnIlAnIlAnIlAnIlAnIlAnIlAnIlAnIlAnIlAnIlAnIlAnIlAnIlAnIlAnIlAnIlAnIlAnIlAnIlAnIlAnIlAnIlAnIlAnIlAnIlAnIlAnIlAnIlAnIlAnIlAnIlAnIlAnIlAnIlAnIlAnIlAnIlAnIlAnIlAnIlAnIlAnIlAnHEWyHnnX3DhVkMXXXzJpTy0E44CuewQz1Jzl1/BEBxwE8iVPDmdXMUwunMSyN94Xjq6mqF05iKQq3lOOnPxXDgYxDU8H/1dy4h66h/IYZ4NF/o/Hd1HcC1PhROHGFY3vQPhefDjQgbWS+dAeBZcYWid9A2Ep8AZBtdH10B4Ary5juF10TOQIzwB7lzOAHvoGMhRpu/Q9Qyxg46BMHmXGGIH/QK5gbm7dCODbK9fIEzdKQbZXrdAbmLmTh1jmM31CuRmJu4W42yuVyBM268jDLS1ToHcwrQdu5WhNtYpECbtGkNtrE8gtzFn125nsG11CeQOpuwco22rSyBM2LsbGG5TPQK5kwm7x3ib6hEI0/Wvx0UPHQK5i+lugA6XmXYIhMluBIbcUPtALmCuG+FKBt1O80DuZqobglG30zwQJrop7mHYzbQO5F4mujHuY+CttA6EaW4QBt5K40Ac3HZQqvEz1PjhmORGYeiNtA3kfua4UR5g8G00DeRBprhhGH0bTQNhgpvmAobfRMtA7O5cO/7Qw1cbXuf1CBNooWUgTE/bcbrfPnEdP1HHA7TQMJBHmZ0yet9zKT/T9hj9N9AwECanK73hiR9ro/cG2gVis2QGnR/g58oep3d7zQJ5gqnpovMVT1JRRu/2mgXCxHQ9ReerbG4DeprezbUK5CkmpovOBx6hpuwZurfWKhCmpetZOh+iqI3erTUK5Dlmpet5eh/6O1VljRanaRPIC0xK2Qt0P/QPqtro3libQJiSNnpPGP2dtfUi/dtqEojV/bZ0nzhJVR3922oSCBNSR/cJq1fI1k08gKkWgRxjQuroP2EWyNZLPIKlFoEwHYnHXz516uQr/GMN/SfGAnnl1Z3ia8f5l8iZBzDVIBD5l+In6WHsW1yqiXwgr1Ot+ivsDbowZB/Ia0ym2Jt0sCebKrVENpC3KO7hZwJ0YMg+EKZS7OBXes/b/HgVpUQuEEr77uHHxewvZDQP5B2mUupd2p/Fz1dRSWQCOfvet098NvkaOjBjHggTKUXrFbdSWUElsR5IZgGs9ygVo70Z60DeZx6FaD2wvlwmhcR6IKeorHqLWinrZWmsA2EaZfILUf6T6gEKifVAKCQolqK1FeNARJcqXkTjFOUD/DyxFshtFFKUCxlfyGgbyAdMosjoNxTUD/DzxFogufOKe6gXorER20CYQpGx14dBILJEbNfINA1EtAUFbTM44AA/T6wFMvG9OUeUMV2WxjQQJlCEphnrJ8spJJb+p77rQ44oQ2MTloF8xPhL0DRn/WYfComSQLZf4pAilhcyGgbyMcMv8QltczhkBYXEeiAXU8kRrdxFWwuGgTD4Ev+gaU7mIyaVxHogW59SyvmMY0oYLktjF8jzDL7A1Fd3n3PMKkqJTCCTv9IcUoSmBuwCYeglaJlzmkMGqCVygWgnYrcsjVkgXzD0ArTM+ZJDhigmsoFs/Ytqxr85pMR7tFVnFggDLzDxH8jI+ihUE/lAppYtkZzTpKk6q0DK/6sc/4Q+Gi7lxEggW59Rz+CIElbL0hgF8inDLkDLdV9xwDoOSIwFMvEQkku5aKrNKBAGXeBLWq75mgMyOCIxHsj4kyi4h+EjmiqzCUTw3yQt10zd284hiYlAxhOhXsJmWRqbQBhygbGP6CeoZ3FMYiqQ0UQk96/QVJdJIN8w4uWeo+Ua6nkck5gMZPRZpFziW5qqMgmEAReg4RrKIzgoMR3I2NkMydq1NFVlEcjTjHe5R2mZojyGoxLTgWx9x2EpyiXuoqkmg0Cy33JMo2Vqbr1MDkvMBLL1Mscl3qVcgqaaDAJhsAXep2Xie8qjOC4xF8jY00i1hMGyNPqBCC4KpGWK6jiOS8wGMtJOcu3c1PkbGf1AGGqBkct0qE7gwMR8ICPv/VSL0FSPeiCCJWZombic6gSOTMwHMtJQcp/CVbRVox4IAy1BywTFKRyZWBCI/CHX0FSNdiCC/eqfoOnQkmseOTSxJJD8tCVroGkvS6MciOQiDpoOZa51X8exiSWB5JuOf688gbZalANhkCXyf/NSnMaxiUWB5E9nUCxyP22V6AYiuaYm+6XpssWcODixKJB82/yZ4hmnaaxDNxCGWISmQ9RmcHBiWSDJHXOgWIa2OlQDkeyGd3YJy1ULbxTl6MSyQGp+ERKj59YkNAMRXSibvWlv4W0lHJ1YGEh2KSHZDqQ0VqEZCMMrQ9shanM4OrEwEMWXyNiX1RKKgZzH8IpkLwV5g+IcDk+0D2RkICKKgTC4MtnHpzaLwxNLA8lumS7cFJbWCvQCeYCxlaHxwDXUZnF8Ymkg2eaCK5J36e2vpxcIQytE44HF68NwfGJxINfTYIBaKVrXUwvkTUZWJnuGh9o8jk8sDuRyGgxQK3WY5tW0Apm4nG3KOzQfoDaP4xOLA8m2l+45Q/NqWoEwrFK5jSC+pTaPBom6QBachsmauHK4iFIgs6e/R9B84Adq82iQWB7Ig7RYdTO1Yh/SQSWlQBhUMZoPUFqABonlgWTf+KmVo30lnUBGF+GbQ/sBSgvQILE8kOwdENTKPUwHdXQCYUjFcpc33EFtAVoklgdS+fuQooM6KoHkVntbJLfoReXz2TEQlW99VQJhQOV+pINVBetx0CJREMhgJUZIbpMGPVTRCOQw4ymX+zOn4DoiWiQKAsldX/EfagIa5w41AmE4AifoYdVN1BagRaIgkNx9ptJFIndoLJHZNxA6GKC0BC0SBYF8QZNV6wvXLUcXNRQCqZgBPQxQWoIWiYJAcoug1GyWdQV9VFAIRLLoD+hhgNIStEgUBJJ7j6nZsFfhwlKFQBiMBD0MUFqCFomCQHLXVEnuE9k3trpjgXMwkIL3nNzypzWBjIyoxDkYyI1UFzgnA/mJsUjQxQClJfKLHxYse5O7A3TjA6mZAF0MUFrifJoMFZxiyu27V7ULP31UqA9EdPUP6GKA0iI0GaK2xA80WVXwN8E6+qhQH8jPjEWCLgYoLZK7xe91akvkvtyUrJ511h10IlcfyI+MRSL31UnJSe3cwm6UFvmFNqvEO1nsoo8K9YGIN37Y8QF9rCpal2N9+82ixchyj/8dNRH6qFAfyCeMReJX+lhVdutlutRe2TfPuXeYudUKJtFHhfpAit4jErkrowr/ajtKszN+46cL0WqAkgx9VOgbSN11cmesfEFYfD8E7QYoydBHhb6B6DwjH/13r93Ri/j3Ykf22iWoiSgstaEQSMU5z2wg0msHy+Vuayu4xmKdwll1hUAeYzQSdDEgvXaw3Nc84qqqz4VTS5ovpBDI74xGYnc31JR4J8piPOBAxSl1jf9CNAKpedfNbuNPzVx2b6WCU/prNG5Z1wjkccYjMNhedZ9geQ4R9d8GjUUYNQKpmQQ9DFR9m1SAhxuiJkIXVVQCKf578wA9DFGzxqMN/EpN4hv6qKISyClGJHAvXQy0ec/KruVQ88UJXdRRCaRiGtlVW0UbQxXjwYaoSeRPl5XSCaRiHnQwRM1U9mO6dIfcXXRRSSkQwfYtyN3UVvcV+EK5j0Dbf1AUOPP9TTWlQOS/04foYIiiJR5piJrA6IaxhbQCkazUfQYdDF1M0U7+fieKAnRQTSsQ+VReo4MhinZ4nCH5O2/ucgkRtUDuY2TF8pdfWr9EnuRxhigK0EE9tUC2n2VoxWifoGiFRxla3213qakdMcvoBSJ+CvOXjJ9P1UZ22bSKj1N0oEAxENlqbDton6BoYmTZBarlsn9CyygGIp7P3bQfkr9/zOMhEndRLZb9jCmkGUhuu9olnqZ9IrMbsZKRz3BUy9FehWYg4pM7NE9RVTey4Z10vZat3+hAhWog0qdw7GINytroPUW1HO116AZyiCGWonnqYcq66Dz1EOViucsv5XQDkf6WvU3zVMXJ4VGf03eKcjnaK1EORLInyq785wLRlqgzsifSd4g/9+Su4K+gHIj494zmayirGd3ug3ox7X3BtAN5lXGWyi1Ds4e6ktHvAMXfndFejXYg4jcZmq+jrmL0PvLFSwWn1PeWVA9E+gSOr5/OAQryJ8N2cUA52uvRD+QYQy31E+3XaV19PX4Vgvhy4pFdQyvoByL+baN5RuFtOCPupLcMjihHe0UGgRSspDDwIu0zai5f2/cnfWVwRLmP6UCRQSDi+eX3z9tTddfGrqnroKXfL4x9KVbFIpBPGW8x2mdJ9hg8MHVG71KOKUcHqiwCkZ95o33WBxwjQRd5HFMuv69YJZNAxHOcfg+Q3kuT3W3qLA4SoANdNoGIL6e5hA5GSG5nzG5KcUC2zcaum+lBl00g8l+7dCGAxCeln0myu/KtkP9FnV2nvJ5RIMu3nEjl1jZe9dXyzRO2tt6g0ajbOVCAHrQZBbJ9IcMuRwcTln7HP/8xWn4B7MgWvvWsAhFtvHwGPUy5b/4CkSULhMpfx2YvELNAaq4FpYcZR8e3AHj/JY6ZJtyRbc9j9KHOLJCKPyeX//bdesuLwytdjrx/1eIzeJ2XjhthF8glDF1i7n/2NV/lL7abci+PJZK9zUiFXSA1L5Gtv+jDTsGuGOs0L1VMGAbyF6MX+Z5OrJT88byOTiwYBlJz+/rE1QgqeBCh7+jFgmUgldOmEwOijd9X0I0J00AqL5fO3+xWT3rx2L7RK2Q0mAZS+RKZ/+ZDRLyF2T76sWEbiPh62X30o0h+OmrfKXqyYRtI7Utka+tKOtIi3MB+RW69eEXGgSisDqf5GUx6/cUqurJiHEjF+Z+zxi6NL3YrHVbJLRevyTqQ+jetHXNnmZapWrL6LDozYx7IcSZS5w96E/tdfBv90MSlSjrMA1F5ieyo+nR899P0Uiu3HYMu+0COMpdqF1xGj6Vqznsk6NGQfSBaL5FdMxel5JzSvLt64mpXLQ0CuYLZ6Cj6GvjUU7RSQreWGgSyfQ/T0XJ42ZdcT6jfMqqyYfqMFoFovmnhwmOTp7Cuf77uUuAR9G6qSSBWK/s8evvJdFuwy35+XefzRkZu93d1TQIxeIl0oLGy+7w2gdR/xeoAczHWJpBz4SXyClMx1iiQcyARJmKtVSCPMq2NpbB3/SKtAtn4lwjTMNcskIoL/z3I7bprolkgm/0SeY5J2GsXyGnmtpGYQwPtAjFY+6oZ9SVmxjUMZIPftJhACy0DsViwr4mJVVLUtQxkY18iDL+JpoG02g9PWW7XdTNNA9nMl8g9DL6NtoGcYI4bhbE30jaQ+ivP29PZDW+xxoFs4JsWA2+ldSDyXZ46mVl8RV3rQDbtJWK0xMy45oH8zEw3BKNup3kgm/USGV/p10r7QP7HXDcCY26ofSDbHzHZDaC3G95iHQLZoDctBtxSj0BeZ7ruSe9/qNEjkE15ibzJcJvqEsi7zNg5RttWl0DqlqVp5RiDbatPIBvxpsVQG+sUiHj9+3ZuZKiNdQpkA14iDLS1XoG8w7TdGtvIz1qvQLy/RNpdqpjoFshlzNwpRtlet0B8X8h4mEG21y8Q129aDLGDjoG8weQdstkaZJGOgfh9iRgvGjepZyBuE2F4XXQNRLydmy1G10fXQHQW3dPG2DrpG4h4t29DjKyXzoH4+3+EYXXTPRCNdUv1VK/tWK1/INu/8GQ4cJohdeQgEK0FXKt9wXC6chHI9p/X8px0dDFj6cxHINvbn3R+lTRa62eel0B2fM9z096RlrfZznAUyI5L23/heNHVz/DgPvgKJEQg3kQgzkQgzkQgzkQgzkQgzkQgzkQgzkQgzkQgzkQgzkQgzkQgzkQgzkQgzkQgzkQgzkQgzkQgzkQgzkQgzkQgzkQgzkQgzkQgzkQgzkQgzkQgzkQgzkQgzkQgzkQgzkQgzkQgzkQgzkQgzkQgzkQgzkQgzkQgzkQgzkQgzkQgzkQgzkQgzkQgzkQgzkQgzkQgzkQgzkQgzkQgzkQgzkQgzkQgzkQgzkQgzkQgzkQgzkQgzkQgzkQgzkQgzkQgzkQgzkQgzkQgzkQgzkQgzkQgzkQgzkQgzkQgzkQgzkQgzkQgzkQgzkQgzkQgrmxv/x9OkuBX/eOsugAAAABJRU5ErkJggg==;" parent="Jxjm6EtdGCbH2TAaKVnW-1" vertex="1">
          <mxGeometry x="350" y="640" width="100" height="100" as="geometry" />
        </mxCell>
        <mxCell id="GHnSLeBRDesazsaObI4B-5" value="Almanamiento" style="text;html=1;strokeColor=none;fillColor=none;align=center;verticalAlign=middle;whiteSpace=wrap;rounded=0;" parent="Jxjm6EtdGCbH2TAaKVnW-1" vertex="1">
          <mxGeometry x="370" y="620" width="60" height="30" as="geometry" />
        </mxCell>
        <mxCell id="GHnSLeBRDesazsaObI4B-6" value="" style="shape=image;verticalLabelPosition=bottom;labelBackgroundColor=default;verticalAlign=top;aspect=fixed;imageAspect=0;image=data:image/png,iVBORw0KGgoAAAANSUhEUgAAAZAAAAGQCAMAAAC3Ycb+AAAAAXNSR0IArs4c6QAAAARnQU1BAACxjwv8YQUAAAFWUExURZfJd4bBYnO3SG2zQGyzPm60Qne5T4nCZ53MgKXRi3u7U4TAX7DWmYfBY5HGcHy7VIrDaKzVlG60QYTAYHG2RnG1RZXIdrHXm3q7UpTIc220QH+9WZ7NgofBZKXRina4TYvEarDXmpfJeIO/XqnTj3W4TJPHcq/WmG+1Q4C+W6LPhoC+Wo/FbZXIdajSjqvUknm6UY/Fbny8VZzMfpnLfIXAYXC1RKHPhna4THS3SpjKeHi5T67Wlo3Ea3m6UJrLfZvLfprLe63VlH28V6TQiabRjIjCZYO/X3K2Rq3VlXK2R47FbKDOhJ3NgXu7VJTIdJ/Og67Vl3e5TrHXmqnTkKrTkXW4S5zMf6PQiIK/XYzDaaLPh5LHcbPYnafSjX69WJnKen+9WpDFbnq6UZbJdoG+XKrUkZjKeZDGb5PHc368V57NgbLYnYK+XazUk6HOhbLYnAAAAMWVLBoAAABydFJOU///////////////////////////////////////////////////////////////////////////////////////////////////////////////////////////////////////////////////////AHzXy+gAAAAJcEhZcwAADsMAAA7DAcdvqGQAABLRSURBVHhe7d3nnxw1EsZxwpJMOMDYBJMzGDA5HYfB5HhkDHdkjnSE2///ze2uf+ud1qiDSlVSjT/1feetlkaaZ2e8M90tnbcdXIlAnIlAnIlAnIlAnIlAnIlAnIlAnIlAnIlAnIlAnIlAnIlAnIlAnIlAnIlAnIlAnIlAnIlAnIlAnIlAnIlAnIlAnIlAnIlAnIlAnIlAnIlAnIlAnIlAnIlAnIlAnIlAnIlAnIlAnIlAnIlAnIlAnIlAnIlAnIlAnIlAnIlAnIlAnIlAnIlAnIlAnIlAnIlAnIlAnIlAnIlAnIlAnIlAnIlAnIlAnIlAnIlAnIlAnIlAnIlAnIlAnIlAnIlAnIlAnIlAnIlAnIlAnIlAnIlAnIlAnIlAnIlAnIlAnIlAnIlAnIlAnIlAnIlAnHEWyHnnX3DhVkMXXXzJpTy0E44CuewQz1Jzl1/BEBxwE8iVPDmdXMUwunMSyN94Xjq6mqF05iKQq3lOOnPxXDgYxDU8H/1dy4h66h/IYZ4NF/o/Hd1HcC1PhROHGFY3vQPhefDjQgbWS+dAeBZcYWid9A2Ep8AZBtdH10B4Ary5juF10TOQIzwB7lzOAHvoGMhRpu/Q9Qyxg46BMHmXGGIH/QK5gbm7dCODbK9fIEzdKQbZXrdAbmLmTh1jmM31CuRmJu4W42yuVyBM268jDLS1ToHcwrQdu5WhNtYpECbtGkNtrE8gtzFn125nsG11CeQOpuwco22rSyBM2LsbGG5TPQK5kwm7x3ib6hEI0/Wvx0UPHQK5i+lugA6XmXYIhMluBIbcUPtALmCuG+FKBt1O80DuZqobglG30zwQJrop7mHYzbQO5F4mujHuY+CttA6EaW4QBt5K40Ac3HZQqvEz1PjhmORGYeiNtA3kfua4UR5g8G00DeRBprhhGH0bTQNhgpvmAobfRMtA7O5cO/7Qw1cbXuf1CBNooWUgTE/bcbrfPnEdP1HHA7TQMJBHmZ0yet9zKT/T9hj9N9AwECanK73hiR9ro/cG2gVis2QGnR/g58oep3d7zQJ5gqnpovMVT1JRRu/2mgXCxHQ9ReerbG4DeprezbUK5CkmpovOBx6hpuwZurfWKhCmpetZOh+iqI3erTUK5Dlmpet5eh/6O1VljRanaRPIC0xK2Qt0P/QPqtro3libQJiSNnpPGP2dtfUi/dtqEojV/bZ0nzhJVR3922oSCBNSR/cJq1fI1k08gKkWgRxjQuroP2EWyNZLPIKlFoEwHYnHXz516uQr/GMN/SfGAnnl1Z3ia8f5l8iZBzDVIBD5l+In6WHsW1yqiXwgr1Ot+ivsDbowZB/Ia0ym2Jt0sCebKrVENpC3KO7hZwJ0YMg+EKZS7OBXes/b/HgVpUQuEEr77uHHxewvZDQP5B2mUupd2p/Fz1dRSWQCOfvet098NvkaOjBjHggTKUXrFbdSWUElsR5IZgGs9ygVo70Z60DeZx6FaD2wvlwmhcR6IKeorHqLWinrZWmsA2EaZfILUf6T6gEKifVAKCQolqK1FeNARJcqXkTjFOUD/DyxFshtFFKUCxlfyGgbyAdMosjoNxTUD/DzxFogufOKe6gXorER20CYQpGx14dBILJEbNfINA1EtAUFbTM44AA/T6wFMvG9OUeUMV2WxjQQJlCEphnrJ8spJJb+p77rQ44oQ2MTloF8xPhL0DRn/WYfComSQLZf4pAilhcyGgbyMcMv8QltczhkBYXEeiAXU8kRrdxFWwuGgTD4Ev+gaU7mIyaVxHogW59SyvmMY0oYLktjF8jzDL7A1Fd3n3PMKkqJTCCTv9IcUoSmBuwCYeglaJlzmkMGqCVygWgnYrcsjVkgXzD0ArTM+ZJDhigmsoFs/Ytqxr85pMR7tFVnFggDLzDxH8jI+ihUE/lAppYtkZzTpKk6q0DK/6sc/4Q+Gi7lxEggW59Rz+CIElbL0hgF8inDLkDLdV9xwDoOSIwFMvEQkku5aKrNKBAGXeBLWq75mgMyOCIxHsj4kyi4h+EjmiqzCUTw3yQt10zd284hiYlAxhOhXsJmWRqbQBhygbGP6CeoZ3FMYiqQ0UQk96/QVJdJIN8w4uWeo+Ua6nkck5gMZPRZpFziW5qqMgmEAReg4RrKIzgoMR3I2NkMydq1NFVlEcjTjHe5R2mZojyGoxLTgWx9x2EpyiXuoqkmg0Cy33JMo2Vqbr1MDkvMBLL1Mscl3qVcgqaaDAJhsAXep2Xie8qjOC4xF8jY00i1hMGyNPqBCC4KpGWK6jiOS8wGMtJOcu3c1PkbGf1AGGqBkct0qE7gwMR8ICPv/VSL0FSPeiCCJWZombic6gSOTMwHMtJQcp/CVbRVox4IAy1BywTFKRyZWBCI/CHX0FSNdiCC/eqfoOnQkmseOTSxJJD8tCVroGkvS6MciOQiDpoOZa51X8exiSWB5JuOf688gbZalANhkCXyf/NSnMaxiUWB5E9nUCxyP22V6AYiuaYm+6XpssWcODixKJB82/yZ4hmnaaxDNxCGWISmQ9RmcHBiWSDJHXOgWIa2OlQDkeyGd3YJy1ULbxTl6MSyQGp+ERKj59YkNAMRXSibvWlv4W0lHJ1YGEh2KSHZDqQ0VqEZCMMrQ9shanM4OrEwEMWXyNiX1RKKgZzH8IpkLwV5g+IcDk+0D2RkICKKgTC4MtnHpzaLwxNLA8lumS7cFJbWCvQCeYCxlaHxwDXUZnF8Ymkg2eaCK5J36e2vpxcIQytE44HF68NwfGJxINfTYIBaKVrXUwvkTUZWJnuGh9o8jk8sDuRyGgxQK3WY5tW0Apm4nG3KOzQfoDaP4xOLA8m2l+45Q/NqWoEwrFK5jSC+pTaPBom6QBachsmauHK4iFIgs6e/R9B84Adq82iQWB7Ig7RYdTO1Yh/SQSWlQBhUMZoPUFqABonlgWTf+KmVo30lnUBGF+GbQ/sBSgvQILE8kOwdENTKPUwHdXQCYUjFcpc33EFtAVoklgdS+fuQooM6KoHkVntbJLfoReXz2TEQlW99VQJhQOV+pINVBetx0CJREMhgJUZIbpMGPVTRCOQw4ymX+zOn4DoiWiQKAsldX/EfagIa5w41AmE4AifoYdVN1BagRaIgkNx9ptJFIndoLJHZNxA6GKC0BC0SBYF8QZNV6wvXLUcXNRQCqZgBPQxQWoIWiYJAcoug1GyWdQV9VFAIRLLoD+hhgNIStEgUBJJ7j6nZsFfhwlKFQBiMBD0MUFqCFomCQHLXVEnuE9k3trpjgXMwkIL3nNzypzWBjIyoxDkYyI1UFzgnA/mJsUjQxQClJfKLHxYse5O7A3TjA6mZAF0MUFrifJoMFZxiyu27V7ULP31UqA9EdPUP6GKA0iI0GaK2xA80WVXwN8E6+qhQH8jPjEWCLgYoLZK7xe91akvkvtyUrJ511h10IlcfyI+MRSL31UnJSe3cwm6UFvmFNqvEO1nsoo8K9YGIN37Y8QF9rCpal2N9+82ixchyj/8dNRH6qFAfyCeMReJX+lhVdutlutRe2TfPuXeYudUKJtFHhfpAit4jErkrowr/ajtKszN+46cL0WqAkgx9VOgbSN11cmesfEFYfD8E7QYoydBHhb6B6DwjH/13r93Ri/j3Ykf22iWoiSgstaEQSMU5z2wg0msHy+Vuayu4xmKdwll1hUAeYzQSdDEgvXaw3Nc84qqqz4VTS5ovpBDI74xGYnc31JR4J8piPOBAxSl1jf9CNAKpedfNbuNPzVx2b6WCU/prNG5Z1wjkccYjMNhedZ9geQ4R9d8GjUUYNQKpmQQ9DFR9m1SAhxuiJkIXVVQCKf578wA9DFGzxqMN/EpN4hv6qKISyClGJHAvXQy0ec/KruVQ88UJXdRRCaRiGtlVW0UbQxXjwYaoSeRPl5XSCaRiHnQwRM1U9mO6dIfcXXRRSSkQwfYtyN3UVvcV+EK5j0Dbf1AUOPP9TTWlQOS/04foYIiiJR5piJrA6IaxhbQCkazUfQYdDF1M0U7+fieKAnRQTSsQ+VReo4MhinZ4nCH5O2/ucgkRtUDuY2TF8pdfWr9EnuRxhigK0EE9tUC2n2VoxWifoGiFRxla3213qakdMcvoBSJ+CvOXjJ9P1UZ22bSKj1N0oEAxENlqbDton6BoYmTZBarlsn9CyygGIp7P3bQfkr9/zOMhEndRLZb9jCmkGUhuu9olnqZ9IrMbsZKRz3BUy9FehWYg4pM7NE9RVTey4Z10vZat3+hAhWog0qdw7GINytroPUW1HO116AZyiCGWonnqYcq66Dz1EOViucsv5XQDkf6WvU3zVMXJ4VGf03eKcjnaK1EORLInyq785wLRlqgzsifSd4g/9+Su4K+gHIj494zmayirGd3ug3ox7X3BtAN5lXGWyi1Ds4e6ktHvAMXfndFejXYg4jcZmq+jrmL0PvLFSwWn1PeWVA9E+gSOr5/OAQryJ8N2cUA52uvRD+QYQy31E+3XaV19PX4Vgvhy4pFdQyvoByL+baN5RuFtOCPupLcMjihHe0UGgRSspDDwIu0zai5f2/cnfWVwRLmP6UCRQSDi+eX3z9tTddfGrqnroKXfL4x9KVbFIpBPGW8x2mdJ9hg8MHVG71KOKUcHqiwCkZ95o33WBxwjQRd5HFMuv69YJZNAxHOcfg+Q3kuT3W3qLA4SoANdNoGIL6e5hA5GSG5nzG5KcUC2zcaum+lBl00g8l+7dCGAxCeln0myu/KtkP9FnV2nvJ5RIMu3nEjl1jZe9dXyzRO2tt6g0ajbOVCAHrQZBbJ9IcMuRwcTln7HP/8xWn4B7MgWvvWsAhFtvHwGPUy5b/4CkSULhMpfx2YvELNAaq4FpYcZR8e3AHj/JY6ZJtyRbc9j9KHOLJCKPyeX//bdesuLwytdjrx/1eIzeJ2XjhthF8glDF1i7n/2NV/lL7abci+PJZK9zUiFXSA1L5Gtv+jDTsGuGOs0L1VMGAbyF6MX+Z5OrJT88byOTiwYBlJz+/rE1QgqeBCh7+jFgmUgldOmEwOijd9X0I0J00AqL5fO3+xWT3rx2L7RK2Q0mAZS+RKZ/+ZDRLyF2T76sWEbiPh62X30o0h+OmrfKXqyYRtI7Utka+tKOtIi3MB+RW69eEXGgSisDqf5GUx6/cUqurJiHEjF+Z+zxi6NL3YrHVbJLRevyTqQ+jetHXNnmZapWrL6LDozYx7IcSZS5w96E/tdfBv90MSlSjrMA1F5ieyo+nR899P0Uiu3HYMu+0COMpdqF1xGj6Vqznsk6NGQfSBaL5FdMxel5JzSvLt64mpXLQ0CuYLZ6Cj6GvjUU7RSQreWGgSyfQ/T0XJ42ZdcT6jfMqqyYfqMFoFovmnhwmOTp7Cuf77uUuAR9G6qSSBWK/s8evvJdFuwy35+XefzRkZu93d1TQIxeIl0oLGy+7w2gdR/xeoAczHWJpBz4SXyClMx1iiQcyARJmKtVSCPMq2NpbB3/SKtAtn4lwjTMNcskIoL/z3I7bprolkgm/0SeY5J2GsXyGnmtpGYQwPtAjFY+6oZ9SVmxjUMZIPftJhACy0DsViwr4mJVVLUtQxkY18iDL+JpoG02g9PWW7XdTNNA9nMl8g9DL6NtoGcYI4bhbE30jaQ+ivP29PZDW+xxoFs4JsWA2+ldSDyXZ46mVl8RV3rQDbtJWK0xMy45oH8zEw3BKNup3kgm/USGV/p10r7QP7HXDcCY26ofSDbHzHZDaC3G95iHQLZoDctBtxSj0BeZ7ruSe9/qNEjkE15ibzJcJvqEsi7zNg5RttWl0DqlqVp5RiDbatPIBvxpsVQG+sUiHj9+3ZuZKiNdQpkA14iDLS1XoG8w7TdGtvIz1qvQLy/RNpdqpjoFshlzNwpRtlet0B8X8h4mEG21y8Q129aDLGDjoG8weQdstkaZJGOgfh9iRgvGjepZyBuE2F4XXQNRLydmy1G10fXQHQW3dPG2DrpG4h4t29DjKyXzoH4+3+EYXXTPRCNdUv1VK/tWK1/INu/8GQ4cJohdeQgEK0FXKt9wXC6chHI9p/X8px0dDFj6cxHINvbn3R+lTRa62eel0B2fM9z096RlrfZznAUyI5L23/heNHVz/DgPvgKJEQg3kQgzkQgzkQgzkQgzkQgzkQgzkQgzkQgzkQgzkQgzkQgzkQgzkQgzkQgzkQgzkQgzkQgzkQgzkQgzkQgzkQgzkQgzkQgzkQgzkQgzkQgzkQgzkQgzkQgzkQgzkQgzkQgzkQgzkQgzkQgzkQgzkQgzkQgzkQgzkQgzkQgzkQgzkQgzkQgzkQgzkQgzkQgzkQgzkQgzkQgzkQgzkQgzkQgzkQgzkQgzkQgzkQgzkQgzkQgzkQgzkQgzkQgzkQgzkQgzkQgzkQgzkQgzkQgzkQgzkQgzkQgzkQgzkQgzkQgzkQgzkQgzkQgzkQgrmxv/x9OkuBX/eOsugAAAABJRU5ErkJggg==;" parent="Jxjm6EtdGCbH2TAaKVnW-1" vertex="1">
          <mxGeometry x="-20" y="364" width="100" height="100" as="geometry" />
        </mxCell>
        <mxCell id="GHnSLeBRDesazsaObI4B-7" value="API GATEWAY" style="text;html=1;strokeColor=none;fillColor=none;align=center;verticalAlign=middle;whiteSpace=wrap;rounded=0;" parent="Jxjm6EtdGCbH2TAaKVnW-1" vertex="1">
          <mxGeometry x="70" y="370" width="60" height="30" as="geometry" />
        </mxCell>
        <mxCell id="GHnSLeBRDesazsaObI4B-9" value="" style="endArrow=none;dashed=1;html=1;dashPattern=1 3;strokeWidth=2;rounded=0;exitX=0;exitY=0.25;exitDx=0;exitDy=0;" parent="Jxjm6EtdGCbH2TAaKVnW-1" source="GHnSLeBRDesazsaObI4B-2" target="GHnSLeBRDesazsaObI4B-6" edge="1">
          <mxGeometry width="50" height="50" relative="1" as="geometry">
            <mxPoint x="310" y="600" as="sourcePoint" />
            <mxPoint x="43" y="486" as="targetPoint" />
          </mxGeometry>
        </mxCell>
        <mxCell id="GHnSLeBRDesazsaObI4B-8" value="" style="endArrow=none;dashed=1;html=1;dashPattern=1 3;strokeWidth=2;rounded=0;exitX=0.01;exitY=0.41;exitDx=0;exitDy=0;exitPerimeter=0;" parent="Jxjm6EtdGCbH2TAaKVnW-1" source="GHnSLeBRDesazsaObI4B-4" target="GHnSLeBRDesazsaObI4B-6" edge="1">
          <mxGeometry width="50" height="50" relative="1" as="geometry">
            <mxPoint x="297" y="637" as="sourcePoint" />
            <mxPoint x="30" y="523" as="targetPoint" />
          </mxGeometry>
        </mxCell>
        <mxCell id="GHnSLeBRDesazsaObI4B-10" value="" style="endArrow=none;dashed=1;html=1;rounded=0;entryX=1;entryY=0.5;entryDx=0;entryDy=0;fillColor=#fa6800;strokeColor=#C73500;exitX=1;exitY=0.25;exitDx=0;exitDy=0;" parent="Jxjm6EtdGCbH2TAaKVnW-1" source="Jxjm6EtdGCbH2TAaKVnW-37" target="GHnSLeBRDesazsaObI4B-4" edge="1">
          <mxGeometry width="50" height="50" relative="1" as="geometry">
            <mxPoint x="340" y="260" as="sourcePoint" />
            <mxPoint x="680" y="740" as="targetPoint" />
            <Array as="points">
              <mxPoint x="790" y="100" />
              <mxPoint x="790" y="690" />
            </Array>
          </mxGeometry>
        </mxCell>
        <mxCell id="GHnSLeBRDesazsaObI4B-12" value="Base de Datos" style="text;html=1;strokeColor=none;fillColor=none;align=center;verticalAlign=middle;whiteSpace=wrap;rounded=0;" parent="Jxjm6EtdGCbH2TAaKVnW-1" vertex="1">
          <mxGeometry x="578" y="430" width="60" height="30" as="geometry" />
        </mxCell>
        <mxCell id="Jxjm6EtdGCbH2TAaKVnW-9" style="edgeStyle=orthogonalEdgeStyle;rounded=0;orthogonalLoop=1;jettySize=auto;html=1;" parent="1" source="Jxjm6EtdGCbH2TAaKVnW-6" target="Jxjm6EtdGCbH2TAaKVnW-8" edge="1">
          <mxGeometry relative="1" as="geometry">
            <Array as="points">
              <mxPoint x="-615" y="-610" />
              <mxPoint x="-615" y="-530" />
            </Array>
          </mxGeometry>
        </mxCell>
        <mxCell id="Jxjm6EtdGCbH2TAaKVnW-6" value="" style="html=1;verticalLabelPosition=bottom;align=center;labelBackgroundColor=#ffffff;verticalAlign=top;strokeWidth=2;strokeColor=#0080F0;shadow=0;dashed=0;shape=mxgraph.ios7.icons.smartphone;" parent="1" vertex="1">
          <mxGeometry x="-695" y="-640" width="40" height="60" as="geometry" />
        </mxCell>
        <mxCell id="Jxjm6EtdGCbH2TAaKVnW-7" value="" style="verticalLabelPosition=bottom;shadow=0;dashed=0;align=center;html=1;verticalAlign=top;strokeWidth=1;shape=mxgraph.mockup.containers.userMale;strokeColor=#666666;strokeColor2=#008cff;" parent="1" vertex="1">
          <mxGeometry x="-710" y="-500" width="70" height="80" as="geometry" />
        </mxCell>
        <mxCell id="Jxjm6EtdGCbH2TAaKVnW-8" value="" style="shape=curlyBracket;whiteSpace=wrap;html=1;rounded=1;labelPosition=left;verticalLabelPosition=middle;align=right;verticalAlign=middle;" parent="1" vertex="1">
          <mxGeometry x="-550" y="-590" width="20" height="120" as="geometry" />
        </mxCell>
        <mxCell id="Jxjm6EtdGCbH2TAaKVnW-10" style="edgeStyle=orthogonalEdgeStyle;rounded=0;orthogonalLoop=1;jettySize=auto;html=1;entryX=0.1;entryY=0.5;entryDx=0;entryDy=0;entryPerimeter=0;" parent="1" source="Jxjm6EtdGCbH2TAaKVnW-7" target="Jxjm6EtdGCbH2TAaKVnW-8" edge="1">
          <mxGeometry relative="1" as="geometry">
            <Array as="points">
              <mxPoint x="-615" y="-460" />
              <mxPoint x="-615" y="-530" />
            </Array>
          </mxGeometry>
        </mxCell>
        <mxCell id="Jxjm6EtdGCbH2TAaKVnW-11" value="&lt;b&gt;REST&lt;/b&gt;" style="rounded=0;whiteSpace=wrap;html=1;fillColor=#fa6800;strokeColor=#C73500;fontColor=#000000;" parent="1" vertex="1">
          <mxGeometry x="-530" y="-560" width="120" height="60" as="geometry" />
        </mxCell>
        <mxCell id="Jxjm6EtdGCbH2TAaKVnW-13" value="" style="shape=curlyBracket;whiteSpace=wrap;html=1;rounded=1;labelPosition=left;verticalLabelPosition=middle;align=right;verticalAlign=middle;rotation=-180;" parent="1" vertex="1">
          <mxGeometry x="-410" y="-590" width="20" height="120" as="geometry" />
        </mxCell>
        <mxCell id="Jxjm6EtdGCbH2TAaKVnW-15" style="edgeStyle=orthogonalEdgeStyle;rounded=0;orthogonalLoop=1;jettySize=auto;html=1;exitX=0.1;exitY=0.5;exitDx=0;exitDy=0;exitPerimeter=0;" parent="1" source="Jxjm6EtdGCbH2TAaKVnW-13" edge="1">
          <mxGeometry relative="1" as="geometry">
            <mxPoint x="-310" y="-531" as="targetPoint" />
          </mxGeometry>
        </mxCell>
        <mxCell id="Jxjm6EtdGCbH2TAaKVnW-20" value="Microservicio de Autenticación" style="text;html=1;strokeColor=none;fillColor=none;align=center;verticalAlign=middle;whiteSpace=wrap;rounded=0;" parent="1" vertex="1">
          <mxGeometry x="-320" y="-770" width="60" height="30" as="geometry" />
        </mxCell>
        <mxCell id="Jxjm6EtdGCbH2TAaKVnW-21" style="edgeStyle=orthogonalEdgeStyle;rounded=0;orthogonalLoop=1;jettySize=auto;html=1;entryX=0.5;entryY=0;entryDx=0;entryDy=0;entryPerimeter=0;dashed=1;" parent="1" edge="1">
          <mxGeometry relative="1" as="geometry">
            <mxPoint x="-290" y="-650" as="sourcePoint" />
            <mxPoint x="-290" y="-580" as="targetPoint" />
          </mxGeometry>
        </mxCell>
        <mxCell id="Jxjm6EtdGCbH2TAaKVnW-24" value="" style="shape=image;verticalLabelPosition=bottom;labelBackgroundColor=default;verticalAlign=top;aspect=fixed;imageAspect=0;image=data:image/png,iVBORw0KGgoAAAANSUhEUgAAAP8AAAChCAYAAAAIjGlNAAAgAElEQVR4Xu1dCYBOZfc/szJj37OFVNpoUdpo06JIVIRKSCnZKi2SFFoUyRoqWypCspZK0aadUFQikn1fZsz+P7/z3PO+z3vdd+Ydjfmm/9zb55uZ973Lc8/z/M5+zhNVtWr9LPIPnwI+BQodBaJ88Be6Ofdf2KeAUMAHv78QfAoUUgr44C+kE++/tk8BH/z+GvApUEgp4IO/kE68/9o+BXzw+2vAp0AhpYAP/kI68f5r+xTwwe+vAZ8ChZQCPvgL6cT7r+1TwAe/vwZ8ChRSCvjgL6QT77+2TwEf/P4a8ClQSCngg7+QTrz/2j4FfPD7a8CnQCGlgA/+Qjrx/mv7FPDB768BnwKFlAI++AvpxPuv7VPAB7+/BnwKFFIK+OAvpBPvv7ZPAR/8/hrwKVBIKeCDv5BOvP/aPgV88PtrwKdAIaWAD/5COvH+a/sU8MHvrwGfAoWUAj74C+nE+6/tU8AHv78GfAoUUgr44C+kE++/tk8BH/z+GvApUEgp4IO/kE68/9o+BXzw+2vAp0AhpYAP/kI68f5r+xTwwe+vAZ8ChZQCPvgL6cT7r+1TwAe/vwZ8ChRSCvjgL6QT77+2TwEf/P4a8ClQSClQ4MCflZVFUVFRhJ849Hf8dB+5ObeQzq//2j4FwlKgwIHfnyufAj4F8ocCBQr8odI+E3KfYmNjWAswGsDRB7SDKMrIyBBNITstIX/I6T/Fp8B/hwL5Bv4QFZ2BDCjrZza5MjMzA0DPyMikpKRkPs8wAmMGmLONVWAAn5CQIEzCfJ5F0dHR5nd8n8UmRBSfDAYin+Gn+QzfObf978yYP1KfAnlEgXwB/1FSmQEqIHRse9vGNwCPotTUNKpQoRz16tWZihYtQmAKALVqB/r++Hvs2Ddp3bq/qEiR+KAGYAHfMABzhWEADHwH9YYZ+IdPgcJHgeMOfjfw5e8YSGYGJKvrtjqvAMdnhw8nUZ06J9OyZXNynJWbb+5Mn332NRUvXkyYhACb/2dL/mhGP56a7kh8w34c4HuaFDk+1j/Bp8B/mgLHHfyifjuee6EUq+eZSUdEb49OKEKUKQa96vEGkPx3cvIRql27Ji1cOIVKlSpxlORXbSGTr2/d+n764otvqVixBPMsFeUG3/JnKoM9jYFfMjNGGIDwh0xmQGIh+CbAf3oV+4M/JgrkPfih0sOmd1T7kFHFMPB27aWEM06i6KJFKemXPyiGpXUUS+tMaAQAKqv2ADZs/dq1a9BHH71NpUuXygb8GXTLLffSkiXfUokSiQHJL5Ld4Ssp/EvFjFiqxP++KZJE5ZgBMO4DR8AHAG3EcRweEzXz4aJw4U33o8OFSyO5XrWxSMKt+fDKRz3Cy7nrNgftd/B6n//FuLN75v/CYZ2n4A8ARxkAv20mO+uio9ljzwBP33eASl11EZ064klK3bOXVrfsziI5naLgrLPi+qr2A/yLFr1NZcpkB/4satXqXlb7lzH4jdovoI9mIPPvMQzovTEZ9OquqnRdSknqX3IbTS2+jxLZDIjn76B4QPqLX8BxIDpewYK2Po6KaOiChy8ENFMFCjSwmZiboQUXmqP18IXqJAXxoE15XX+sjNHr+arh5faenmakvLv5J2/Ea0nWgaNFhjIx887mMDQz1wSdycdr4t3PsBnW/yJSlafgVypC8gfAHBdLGYcOszYQTdV73knVH7pLvotNTKS/x02n9Y8OoThW62H/YyZU+kPyn3TSiQz+t6hs2TLZqv0G/F+x2l/ciQyY6Yvlf7ujMqjDwTI07EBl4lFQcbb830nYR0+X2ka7YzKplJoBWA8wAZywou0UPF6L4Vjuay9+ADY2NpZSUlL53xEn0hEjDtK4uDhKS0sLYRj6PHuh4Tw4V3E9ABMTE8vRk6LMDKL4+vQQAHmHW73fws087LPCSeWc7u8FfER5onhtwUzE++IeRYoUYRrEy/jt6JFeH8drMhj7OZZZyLtrMN709AwJV7u1tbx7ived8gz8NhdTDzoce6m791NinZp00vMPUbnrGlL6gQNEHMLDEVOiOK3p3I92zVxEceVKUyZPlkoxTGbNmtXpww+nUvnyZcOCH2HAVq3uo8WLvwpIfkhxyPGk6Ew6NbUIvberBpVg8c5BQ8F3GdYHVsccoUdLb6PPix6isswAxAGJ6AMZh6ExBQpGJMCt0grtmLZHjqTQ/v0HhT4VKpRlRhDHIEimbdt20iFmuPhcFxTuYUdL8DmAsXv3XtGsypcvR/HxsexoTaatW7fLgixXzjBd9xEu29IL4PhMpXLQTxPUTCI1LdzmijB3Bv6+fQcF9JUrVwrMP95p587d8l7x8fEhWgDCx3tY6zQ5JIgeQfrnV8zHPMeez/T0dBl3sWLFhAEovXKrER0Lo8gz8OPh4q0XALEAhZq//xBVaHUd1RrYnRKrV2ZVfz9FMdeVcBurllFxMZS29wCtvOkBStmwhe3/RGYMGbJIIfkV/Aj5uUN9tsPvttvuo48//oIdg8Vl0ZrveDw8qe/uOJEuTk+k/Qxq8HsQP43/vwT/ZFlJQ0vspFEldlMcDyo+M5oyoxkk/DOLf2o48FgIezyuUSkWw76TfWxCVWeadulyB51zzplUteoJIvEOHDhIGzf+Q0uXfk0TJ06X94V0txec0hf5EZ07t6FGjS6U6xMTi8p916/fRPPnL6YZM+bxokx01GnQ1IRbczp04apUU6mM63A9pDJACe0CYFSmlJPqa78DmN8u9h9ddtlF1KFDKzrllFrMrErz/GfSli3b6IcfVtL48W8xI9zB4IJGmMXM8ojkhNx6a1OhGTQkVf3zR+0PTV0H2P/5Zzu9994CWr36N/FtYZz5AXxBQtWq9dUAymlOs/0+RPIzsKN5gqs/0omq3H0LuAJ7+JMZ7HHWPVjyMMeOY+68e/EyWnP7oxQNxuDYbpBgNWpUow8+mEoVK5bPRvJn0W233S/gL1EyURZTHC/4XVHp9My+E+jhw+VpF6Wzfc+ABtOR6eaQH/+G82AGLCxykJ5kLWBbTDozCNsTWDDg77YNEQa98MJz6fXXh1C1apXDzsunn35FnTo9LIse5oEuKmgMYKy4/pxzzvC8HnScMGEa9e37gjAP+8hJ8qtWgXGCcZ9//jkCzsTEIgzGXbRixWpas+YPUcsh9QBYtb3DMQAFhWqG+/cfoLvvbkcDBjws4PY6wAQ7d36EGcEKyQEBrSZPfoXOPLPOv1rreX3xrl17aNCgV2jSpBnyLra/Iq+fFTKPeQ5+qJOpqRRXqRzVmz+OivLP9IOHKJqJL4cTBQDXF+nMCyCuXFnaMGgM/f38axRbrhR7/8GlUxj8VTnU9yZVqlTBE/xwTAHObdrcTx8t+pzBz1DOyKI90el0fXIJmrSnGkt3A3YnP1DU+mhhBJkEJYtdZVSU/91cbiN9y5GARIdJyFgdH8TxnIBI7m2DH9KibNnS9Mkn06lKlUqi8uKAU1UyG0BTSYiCWhtLc+d+THfd1YNzIMyiwr2gOYCudeue5tj1kEhwGgadZbgf1OqBA4fRkCFjWasqKVqVW/J7mSSabn3vvXfQgw92Fp+NfeCaL7/8jhf8cM7j+JElXklh2nq4GYBtGmCMMGkaNryQ5s2bKDObyusN4zcahLkP3hXaxd9/b6Ebb+xIGzZsZG1olkh8jE+fp+4pw9DyRA5mM6VOipnlXMRzlTFfe21bWr58NWskRQOaWk5+kEjWT7hz8kzyG1w7iTO8aNL27KPSjS+mM6e+xDPBufdYkLzo3DaecQxC546l1a0fogNLvxdtIIknGJIfcf4TTqiYrc3frt0D9MGHS6h08RKUlJVB5TNjac6OGlSNfybxhMaKpR9MEVZiQPqXZ/v/0RLbaFTJ3XxdDGWo4Bd7v+Dk/mExQwJv376Lhg7tRw880EGAC/XXXiC2jQ9aA7C3396NfSefsV1ckTZt2kKPPtqVQf0Ifxf0sdjOJp1LfLaH5/HCC5uJGabPyUnyA1yvvfYSg+4ay/Ou0Qij1hpHZYpI5tmzPxSGpjav4bvetMe1uG7q1JHUpMmVwvxwL/eB8/AdTCEwmR9++Jnef3+Cp1Q9ngALBzy33Y+5nT//ExZkXcVXAVpEYmIVCPC7JQDCd6lsk9V46n6q+VhnSoe9L5NknHE2j81irh/DCT9Jf/1Dq258gLIY+Cn88tWqVhYJhUXrZfOr5Bfwf/AZlS5Rgg5kpdFru6vTLRzW28WyHaq9fSh/h7wsy0xhXlFWH8tuZunv2LKO119TggsC/JW2ADrs56+/nksnn1wzQBO3xFT1Hl58qLtDh46nJ58cLJoC7OSZM8fR1Vc3EuZhPN/mcDMAfAYJCYDOmjVfAIpr3Da6Mgvca8cOqLCP0MMPd5EoBD7zOh+LG6CFY+666+5gprRZogy2g9GOCugYcR1s4+XLPxRguxmFmhx4JjQCgGrmzAVy39atbzzKnvZ6538DqEivtcepvhzQ4rzzmoT4Z44nYzo+kt+Ss5m8AM+cPozKXF6f0tgBGO0U4LiJJOp/2VK0bcYiWtflaUpnZyDAv2DBFFm0XuDPYBUf4Gx3xwP08YLPKL1MInXeW4qGHKzsCXwN77AeImDfGpVGLStupK0xaZTAf8PPHzALkAZcQCS/ghkLHynMn332LtuvVSQe72Ur2+AH+N5+ezZ1795PwAWVf8aMcdSgwTlia8cxnW1PultzAIheffVN6tHjSXYwVhFAq19GQY+fOA+mGrS0Dz4wDDs7TQHXgJHEx8fx/aewefA0X1tBwo7u62xtERpIw4YXsDkzSaQj3ucobdJZXCZ0GcPM8gc555JLzg8Bf04OxkiBfCznKc2V2YF++/btZ+frzcxA2QHN83a8HX+5B7+6RUV0O9l8+M3KjAtoAbD/2dlUtFZ1qjt/DMWxcycrhWWu5PaHRlpF+8dksv335yMv0oYRU6lmvdNpwdyJ4ol2TzSulygUg7Tj7d1p2gcfU6OiFWjm9uqWku8kfSB5xwEydA48CmDvVGYzzU88IKG+NB4SO/hDNBJZhPLZ/7ZcWBcx1FjYzx9//I7QxHaCedEfKj8W0XvvfUD33fe4AA3gAvgvu+xCoalbZXb7FwCeJUuWUYsWncTut+PRClKMDxrGli3b6Z57bqdRowYdpbbaEkwZuarsUMlbteoizAPj0e9tUOEzfLd79x56/PFurMn0DGFa2WkX8+d/LKutadPGIYwiUqlvayDZSWKbiebEEKxUmMCpe/fupwsuuJ61OzDY8KZPTveO9Ptcg1+95U5dXiCNV2AmITaX04SBns4vVaFdMzp9TH+O8x+EmAjh7qr2QP1HKJBFEn133T1UZt8h+gBSrsoJIZIfz8Bkq+Rrwzbt4vmf0oepZ1LdlHg6xDIcmX1HGxgsbcTOj6URibvoibLbqFyGyfWXsp8ofr6k+xnAa2hA7vM/TPvVZ6elsT+jfClOeZ4m4LcTWOxFaUt+AP699xZySPBx1hoSOYa/k0OAQ6lt2xZH2ctuNRsqP5x+v/76O7VsebeEAd1xc5X+CswXXnhC/BFgMni2WRZB+tlSWu3aQ4eS6KabOrBdvkqcf+qLcIMf90MOw3vvvUbXX3+Vk5TEqdpOGbgbpBgDmN/48VPp9983sPnzVLZMKRxo3JqFmwG4GW8kqrqBCaQX1rGJdvz440q65po2VLKkNw0iBXWk5+Ua/OKg08mExBcgM2DYqYf8fAmo8d9BLoj34ywmXjgnD+9LVTq1pLTd+ySs5z7Edw9pxV77nd+soD0PDKJ570+kGqw5eDpA4Nlm727LDt3p0qmr6VGqyeo+23lHqevG0gfwSzFb+C42iVpX2CggD1Xt8QHDHqFKfq/oLONBZ99wYKiRTGykxI/0PGV2UJONp3+amEL2orTvFWQWxqafPfsDuvfeR8VkgHTu1q0De/CfOkpyusGmwIWDrXVrk0iFZCKAyk4YQmQBWga0hEmTXmF/QkNhLJpf4KaZzbTUL4HxvfXWbElMAvj12cpcbCby+efvSfanDTo388P5albA4TdixBucv7BMaICxYayRqv15LfltDQG0AO2Qc/DAA32ZBrMkMhNubiNdM5Gclyvwy4AE/Ax2hwlkpnDeHP+LLsZpM/EImrHVDE8lYKO6DcJ6LLWiOPZfb+5oKlanFmWw4wpFPIFJdkKAEl7j69MSuDZ/3uc0+uz6VP3kGgEV1V44GEMG32Namyfp+umrmMcUQ/aQhPI4qBVQ9MFdYeeDKaRwuu/N5TfR6rgjkvUX9O7j3SD/zX+pWal0KOsgM4BoKhFTUjQBnbT8ZgA2+JHI8vHHuQO/UfsfEwcZHIannVabPctTRMp6aQ+29gYgAsS9evWnceNM2NVO+zXqeIyUYJ94YjWOKrzFeRkmKQsA81LhbXMFPgRI9BdfHEPPPz9KwCky0ZLmei9kH5555qnstX9Dsg/t++hi17Gbn6bLU4cOveidd96j++/vyExgQMBPoKFPEV4eYT6lu3u+w0n+gAbLzw5ZpyFIdExRJ2FKPfrvv/+hmGaax6CXHM+1livw66QI18cEcT54Yt0GFF+lJh385mNK37lNtIKYBK7UwzkgKt4V8XhIhwOHqeTF9ajuzFckxVc0H/4esXaZLJkEVoX4f1FF4ugwh7Xu27SPWlx2MaXxIozlxaQHVP7omChav+kf2nZxH7pgSxod4PtoOopT1W/uh0XgSP2HSm2lN4rvkco+AB9AF+nC52FEyZnJrCGkULmYitSgaENKiC5OCw/OpKIxCTyhxz/84sWx/y34jeR/TEAGQMIL/uWX70vVpNCR58a92JTRKTjHjZvKIcJBgQpLe3FjPRzkXI4rrrhEgAmGgedkt4D1ejUt0I8BIUnzrkbjsm1yjH3Llh2c2HMbjRw5yGibzjkBAeI80DjRzH02bNhEzZt35BDpbh5XGocHr2CQ3cle9boBRuNFc/szVcvxzHD+iNDUaWdh53Bj0AmJSNOnzxWnp0YnbJzlNLZ/832uwB9iz4O7MTGrPDKUPfnX0pG/NlDyn2vo4PdLKXnVt6zm7xSPXBRPQFR8EW7gwWo+2/9pHAqq8uCddPLAXpwLsNd4/6EBYMKcCUVOQFxiAu35cxPt7vYczRz9HJ1Up3aA8LaHtHmbLtT63XV0O1WlvQzbGI+YPpd3UGm282cW2U/3lt9MpbOQx8fg5/9Ss1IoPYsrC1nCF48pQecUvYAuKdaYzk04l6rGVadd6fup3d9XO/4Dw0giVRf/zcTY1+YF+Lt0eUwcZpDiO3bsonffHUfNml3NYAu2TfPyG2CB4rqPPvqcOnZ8MCDRtbWaXnP48GEGVXt67rnHRa1W34AmD7nfRwGrTAAZexdf3JwdevukxgB0ttVjA/7tDPyBzMjuEO1DW7d5qfxgKgiNfvPNcg4ltg1Uhu7niFNJNisrVSovqcu2o1DHGGR8aXT22aczMJ8PYZLhJL/Satq0OfTKK69Lso5bo7DVeTBWhF63b9/B2Y8JYqKZ8HXwKBCSP9TpAds8lWLLVqQaz79FMVyUIE48LiwBgNP37+Fa/e/p0HefUfIfqxjwWygr6bDU8EcX5QIGXhx13hhIFW5oxPF/lteW/S+Ex9Sz5M/YtZ+WNrqdrju3Lr09c3xAlcKCwSIe9vI46t3/RXo/sx41SUqgg+D2DrlVlsFaT+B/m6I5rFfpHzrIan9a1hE6nHmYikQVoYqxlenUImfQxYmX00XFrqJKMVwMw+en8xzAR8AGAD25/WH64tBHVDKWc8fBKBwGkFfgzuk+eQV+0AyAgOOua9cOrGY/LnF80yTVSdByYoe2Cgsg7tq1m669th1t3rxF8uNtyY9rkUI8YcIwlrLXeOYfuN8x1LQwUQk4u5Yv/0XsX/t7BQCiAVOnjmAwXyHahUYqbJtcgaumwuTJMzgC8Yg4SOFfwLvip6l49M7qU3rjnRAe/Oijd8QuVzqFA79GL0aPnsRa0rMC6BCBiXUNZ7KDb9wHzEfbz3m9c05r4998nyvJjwcZ4rKtfOQwlWh4PVV/dChL+T2SwANHmXA6lvYxCVykg0y/7dsoac1PdHj1d5T8yw+U+s9flLF/HxU9pTadveh1ii9fhjI4dovsP3EkgkBQ/Rj8yZwHvvbWh2jril/phVf6U49unSTODGJ9vewHuqVFZ0rhyybtq8HpvMUE/PDyQ4EXycH/D2YQz5+2Kbue5sVvFal/QlwNkfDnJtSn8xIuoRPjq8h5h/mydEkPNSonnInFomNp1oF36fkdj1N5NgXSOYlIegXko/c/r8APaYwDIKpb93TJF7AXtUpjnWd9R3Wc3XhjB0nLNX0TjA9Ez8UiXrZsruQCqGrspSLbi1W/N87CaK4jGMxhwomBkKKJ6AR9CshtmD37dXb2GR+Qxvi9JD+eg2th7kCthqPUzmjMDjRKb/hHLrroPM4pmCjvizF6zbt+pgwJPSXxLgB/JIfxXRjGoEd+rK+IwW9zVNhS6YcPUtXHXmYb/lrKTGap7jTXBGMQ5xhytdlGjirC0p5r9/F3+u7tdGTDb5T063e07+P5VOL8k+jMN18UkyCDQY0Qn1IhhhNSjrDNv6pFd0rdtJWiOANw2tujOD59MUuhPZw62oF+X/snxZRMoHHbKtONqSW5cg9y3uQPwmoE6BO5hKdv4maaUD6aro+/is4v3ohOiz+VGcCJnOhDlMxET2ZA47pYXGU8lXKXdE4VLhYVS7+nrqUeWzh8xRpDDP8d6P8XJgU1kgnPzTl5BX5IfswTJBQW5ldfvS9JOe6F5vZuq0R75JFB9MYb70jI0Ph+DfjBHOA/+PLL2SEJQOYdgw0z7Hc2C15Dtsb0mDv3I7H7kcug+QRGy4vlNOP97FO4WHwKOj41v9Rp5paykNxImkF+v53PYKYtfO6mG/zz508WDSk34H/iiRdyBX73ejie6r4+KyLwyxRb8XvY5FGJxemkIdMpunhJkdTBw4TLNIQGzz888LII2NscHcPlpXCvHUlibeBnKlo9lYqfkkiJrAnEcEkppC4cg5CuKWwPrb6lF2Vu4fp0Zgyn1zmJ5syZQP37D+PqrHepPHt8D2Sk0hucztskpTg368ikkgxgePWT+E6bow/TuhJVaEettlSnaF0qG81FQzzznBhIR1h95+AkgxleAifvQEL7JmsOWozW87Orkvps605fJX1KpaPL8nUmFHV0qDA3kI783LwDP8poTcouAP3qq4O5vPWGgAptS2obnBpmffvt99lceCLYN8FRW2Gvt2/fKpDcY3v53YAUsrnyQZT5bNjwt9QRICqhBTo4H/dDjUHnzm3Zln5GtD/NIdD7mSUaqols3Pg3S+7mDmiDz80JWPkN/shXQt6eGRH4NdtFFgdL6fQDe6lk4xZUtfuzlJXKITsek6QrSOjOhMykL74iRCeGmYCZH2YEyKhjBpK6YydtHtyNu/lkUTl2QJWofwYVP/NkKlK6Aqv9W+nnJndTyt9bKZZDQCj2qVfvDG7TvcGocOjgEp1BU3eeSDeklubknjT6MyaVvo9Ppk+LHKAVCVE0oMYkOje2NjMJjBFOxeC4cL2+mxm2YVqy8GWRslTLTGPPfzy9tmc8vbpnKJWM4rAfpwIKLTSakbdzctTd8gr8sbEAvzHbDhw4xKGvO9nu7yNg0vboAIYt+RVUmNs//tjAkrRlwJOPcWnizZgxz7NDsHVAPc5O5bc1DTukd/DgYfbGt6Pfflt/VLt25BoMHtyXS5TbyNxDi8mJWb377jzJbyhZ0jSAtRlFdlPmg9+ijtoj0mQT4N+3m6r2HkqlGl3PEhxS2tjrthf8aEeHY89D6sMtAIaBZIuSpSl5/S+0oVdbymSPcRwnryScXJ3KcK+/RPbw/zVoNKVt2iZqPyJSiPVioUIzAEJTGND9959Asfz7oqIHaW1cCm2JzaCDWQfo5QrD6abiTWlXJi8WAXpoSMuMUZ0+pqOLedegTQ/wF+Nrfzmyih7e1oXdfymiLTjJWQEN53jiP6/AHxdnbH7j9NvPDrzLuehlvITA0L7LBrr+rkDFTzjKGjRoKsU4Go6DVAYjWbp0hjDmSEBv09cGJZ7RtWsfevPNWdJZyCT7mFg91Hao/OefXy9slp4+WyMBPXs+RVOmzAy0dPfy7HvNmw9+G/wiFkW0c0IPL/6y5anGc29SkcpVKYPju1m8eARDzAQ0ByAAdccxZhYRVLNQD2sWGEDpMrTnw+m0YzzHb2OKcs+/Q8JMoosnCGNB1p+A3dEudMHoAoWT7zCn5qI1dwkqQkfSdlPr0h3poQp9aT+DN5btdPuw1c7A7zIsY5/C0Ye8AHZUsB8gjorws9Hp597N7Wllyo+UEMU2r6DfMIrjfeQl+DFczBFq4mtx5iQKZNy1E27Jj/dTCX3nnT242GqxqP5glGAIyDZE0xWtvvSiidc9bbqpd/7119+RZBc4Dk2dPjN4rgepWrUSffvtfJH4qp24Jb/eTx1viB789NPqgNc90rnywR8i+Z1aeIAX6nZiCSp5VQsqdvbFVLTmqVyNV0HOzmQnIL6XsJ+VvecGfgj8oWIjeaZYSfpnaG86+MVCiilVljMCmaFgDz5LDdUhQTVHQo4kBzmaBOf7iMPucOYhqs2huxFVxnMor5RY5xx7CHHSGdPDLtYx9iI+R+wfPoDiaGbBZ+3LPELrU3+jX1J+oVn7p9DODDZBmCHkp9Mvr8GvTBNe9smThwVCZ17puLajF+BB/Prxx58ToINeCAHedFMTqRfQaIIyRTsfA+204Bs49dTaIfF7lcbqvUcFHpJy7DCZqeRrIF53BbZqlgpoZQR6H/QhvPrqNlIh5w4d5sSsffCHgN/YyerWA1gzD3F8vmgiFalZhxLPqE/F6jXgfvz1KZaleBa344ZDD6sj4Fh1OsWo6m0vKkkG4hyB9MMHaFO/jpS29W/e0INDhY6dJovJrCgZVaCoCDCjD6cAACAASURBVAwHHmMjgw1wOVlnWJVJVLfoWXSQpX5cNEsK2ZzDFFHYdzC2vdr53PWV75/INzvEp/565Ef6PnkZLeefa1NW0b6MXVQ8qgTfj1Vn+DTlnvlT9pvX4Mf9AHT0unv55f6c699RJLjW9rvj5gCoOv2Qides2V3SWg0HEm+effYxeuSR+0IKcvQeCsbFi79kyf0Th8BQjadde4Jak0p++HOwAxMKkEyPPWbAnJfw2GNd+doeAbNCaaLLVDUTZQ5z5iwKpMtGqu7rvXzwu9hjwPYDICHVYSNmMMiTWO1HLj877+IqVRUGUOLCxpRQpx7H+tFbjWU0awOQ5FFw+Imnz5HZLHlEvWdbNItV6xhW8w9+u5Q2P9uT1X/jR9Aog20nGm+ckdR6QBs4xIk73cs9SveV60h7EDXkL9PYq49GnijSgXYAf0MmJ/pAxY+DDMdw+Lwjman0Z+qftPTwB/Rj8re0KW0DOwn3CdCLcYpvHAcOM7kvYIa0yPKO9+YkUY71+7wGP4ACKb2Dna2tWt0oXXfc9eNuNV0lK/ZEbNy4tZMcFCvdg6E9NG9+bUjijb6rgnHGjPmiNaAcGTsrGb4e7CiskhzPadu2Kzdx+VTsfnyObrzownPNNY1Ccgi8nJMwFfBuzz8/krMNR3HYEF1xTPuySDvj+OC3Vqrt9DECmKWepO5q/j4jhO3+rLRUKepBy+64StWo2HmN2HvfSLSD2DLlxVkYxYkTnKgvCUBZHMuH5M04sI89+n/SoeVf0WH+l7Z5g4QH5f7Oc9xZEE5Qx4zSsUrgza8cU43qJ15EDROvoZPjT6KysSjg5Vg+bEdmAnEssVmnEMawP/MA/ZW6kb5L/oq+OvwJg/93YRZgTdAYuMcs3laYBfwAAgjHR6jlwvnR8COvwa/3Q6/+KlVMwxQtEQY53SCx1fe9e/dxeLCL9JpDshVSZeE0RNKQO2HImFKmZyD6AD7zzFD25H/BJgPKkY+uk9AKv/79h0qhD7SLDBYwuMeyZfPED6BrUdehsBArxKfvdvfdvQlptigysguRImHAPvjdVFKXv0PsgPMEEwy7XD4XrJjQHzMDJP9EcYZcEfYLFK97ISVwEVDWybUpg7P6othRGPPn35TCWX+HV35DSZwGnJWSxOm/3Cra8Urb9fjhnDWyGBzbHw9OZ1U/KTOJywiiqXbcmVS/2MV0QcL5dHrGaVQhsxLti95Hf8T8Tj+mLKcfk76mNUdWcDEPN+6MLsaA5yiCo03oFt6yvbe8lqOFqINPAwWRrKZ/eU5eg18BAw86GkgsWTKDzj33LM+0XDewAOTevQfSmDGT2C5PpPr160ruhdr7qhXZIAWo77mnN3vxp/Gz5ki7bVXz7VCfmh5IyX3ooafFS5+cnMJ+glriUETIThmKzaD0M2U08C+0bNmZ1q5dJ8xJW49FOg0++MNQytYCRAMweJfDFImw3ES4jJ1s2AsjgyVpWtIBSj6yn4onVqD6J91Ml5zegdb+vZi+WDuRdu9bzwuHixqKlRF7Gp174Ws3PfSyt6mD9rpVAcagj2UVP5NNjcPp+yg5ZR8V40Sf0+q2pLrn3kHrf/+IVv0whfbt3cCqbiKViOctPDj+nQEzAiYK1EMnuOHN4Myz8vPIa/ArWBCj37p1B2ftDeXMupYhgHSDC++rNfqvvfYWg3OAxPjvuKMll8kOCqlIU9rouOF0u/LKVvTnnxvoiSd6UL9+vY7K7gNN1URAfv+tt94jaciw9zt0aM3PGCjVh7az1p4HPCvoNPyR92/sLOFIc43DwCOcNx/8rtXtqfqLNmAkPuzmaI5/A7RHeG+cIxmcCssKd8mY0nRSQh26osT1dH78RVQ5oyQr09xfn+PluzkDb2XGavrs0AJak7SCdrNTDSm0sLG11FaHkZ3kt4eawT4IZBAhYpBw4qlU+pLrKP6s8yiLVcgs3qEF6X3RnC2WvmY17Vv2ISWtW0UZnLeAcCV8D3BiyrPY3BDVFAzO8T3YTsf/Ovgxfu0b165dCxo7dnDYghyde42fL1q0hJNtHmJwprIq31uag2j+vy3JzYYcUeLoa9LkDtmso27dM2QXJre9bnw6KkCiJC13/fqNktkHn0T79rc6DUOsHhABoWPArW3L3nnnfW5X3ktMGYQJlQFEyrR98Fur2y3tQzi7WMicL87NLw5z8wukxZ4QV40r5c7iopnz6EKulKsdV0ty7VMwQdAQHNMADvgi/Du++yd9L6vhn7L9/S0tS1rC57GDUP34YlOEagJuZiSaB0v7hHoXUvFzL6Ji5zSkItVrG70kNYUbhMD+NJpJlsQF2Z5HifHWTXT452V0eBUXHjEjSNuySRyZ0eyslFJksVvRHQBDMJxOIx/5xQzyWvKr806lJUDy1VdzRJKHOFZBPSsVV1X1v/76m/vh3cWlqDsFyOeff3aIva9zo88ZM2ay9AIoU6a0VAQuX75InH449P76jtr+6447uktHZpB89uw3JNRnJLvTOcoCvkp2vV+fPs/TsGGvSzhS9zWIFPiyjhznoBb2HO/c/vwUJPazIkzvNQSxFwIQgMlN4Xp4AL9CbCWqV/R8Lo29jM5g4NeKr8MS3FTKJcOJBr+AJNEA+Q58EFdHBID/i2FQVmPJPGv/Yi6h7cGJNFwOqQa4zCoc/IYBwNawF6lZZFyfn3yIyrToSFV7PUrp27mTn2xowc+0GksEGBdLdQA5Oo4BLoVHXNvPwD+ybjUdZGaQvPJbStvGjIC1mRguTuJV5zAAM5gQBnCcZy+vwW+DE3SE1P7yy/ckBq+SW4GEnwpi/NTmH82atWeb+k9x4AGQ9vn6u6rxKNYBkBG7B6DmzZskpbKqGdiA00Ygw4e/zibCYB7TSeJQRKtyu5WbDebQFOFDkifw88+/Sr2+XmP7IHKaLh/8FoVsziqLgQGbyv+Vii7D8fTz6IrE66luQj2uja9IRdlLzh2hGfCIujOnxn9Ih9XQnBW+00cA/kUY/H8c+Y26b72dmQnHnFGeAwbjZBeIU8/yAYQwI20GAruP8wsq93ye04Ob805BBxjc3GPAsvkC15kVZ+xBlvSSnswqfzSHibI4XIQU5uQ/f+HQ46eUxFoBKhLBRFDbIJcafhTIPchpQf2b748H+HU8oDEaaL70Uj8pnNFUWhtQ9vyrR/6eex4VtXzx4ulHde4JMFixwzO5SceNsllIES7TRv4+YvbowKtqus1wzH6AMQLe+vWvYyA34RZco0Ur0blz2/rKPPD5P/9skxTkoH/AjMaX/EevwIgkv4S5HKmNzjcVYk6g28t0okbFbuAa91Jy1zSR4lyRx/+B0Gx1Sy6+ltGIuuwA387wNU479N1LpZ5b76VVyT9SyegSfK8MDs9ht51gak44AGWh1zvbk9gLEPUB0SXLUo1BEyiuYlVONnJ6BTgXh+YLiAphwAwmgJ2FME6OUHAyuaQro0+BMILfV9Cud8ZQKockJRrhRD/yw/UXBD8XGXElY+57+JnuvfDImykIOsDwNwBp4v0vBvol2OAXhu/kN6jdj5g9drsdMOCRgKPQZhJqIiC9tnnzDsJUkFiEjUSvvfYy6STk3m3Hls4HuLKzZs0GPO476YUX+uSYhKTjxVbtkPwoC9b6/dxIfV0L8If4ar9IOVW1uUsPJ8OUjClDr1ebRhWZCRzgv+HYQ1GMATdsMicK79TFB4JlrsQcEBogL8PS9JVdQ2nK3rHcSqsM7YtKFWu/Vno8HWTHAHbT1TZz0kjDaXWkiy0OHWXZa53B2zXH8r5/mUcOUfELLqfqfUZKxyHZEdjD02ubMfq93jOwkJ1WZNGJ8bTh0fZ05I/VzGjQ9d/JLozQg5wXkh9StzyHSSMHv+mga1p3o4cfmzgO+PV9ISGR5484/eLF7xrG7erpB1ooA1KPOjYBxXno22ebBXhP7RmAUCIaW2C3INj65lnYfbmq7DWIBqK4r5YAqxNQMwCvuqqNlBx37XqXgF873nip/DqGZ555mVt0j5O2XV57C0YyD77ab1HJVrFjo7gHXNpWeqLiELq11K2yNx6kvMh47cHniHaz0Ey1nHBUx1bGRCG0lsm+grLcGPPDpM/psa1d2GRIoKrpcXRFciJ35ikpe+51KbeZ/o7l5hP8FFyTnMSbgKCqz+hyDPQUOnl0fypWuxrtXLCU9iz6klL+2kJpO7dThY69qRJ7fTMPcqYeTockt8pwAxIBi9ulGegCkChAiVLcm/BzLj3mzEOYB9JgEiMwDsTjfZhxMuNlhyYy1gB+3bTDkCFU/9D30u240MDT9PBDM4/QvRXwN7z26HSD3Pk6XEmpAA9XOINnIgwHkALUXoeC9f77+3DrrVni7MP5ZkxxHPMfIc057Fx9pbmIG56QwYPHMFOqw87Fq0NMCzejFiHiVP41bdpeogv2ZpdeNMpuznzw2+AHbBnEUP9jWCU+lHGAGha7mp6r9Aqr+wCUHe03C9GUxzrAh6MOUXTYgGwWoAAngQFUlE/9I3UTvbTpPjqZcwFuOlKBzk3lrDEGOrbT+pu302pefiNtjmfws0aRxBWF2HXlC24llcytomF/Z/JW3nXeHEyVsEBSuZ0HL+TDv6yj3R98SfuWfENlWz9CJc5rKN2CM5OT2AnInn8wAZcTMGRBWX4JgD+mdFnaPuEl2j3jNSlBjoJ5YHiPwwRyhr9b9cyNKmoWI3ajTZPGk4sWvSNbW+kRDvzqOZ85cz7nufcJ5MrbzFyvhYqLnXbatLkp0IDTHqOt0iuY3J/peKQXK88/gI2OS99881OgNRecg0gJRm1+ly53hGzu4aYi7H708VdGp229NAchqHGYilG0D2/QoJns6gOtwx25yHmWzBk++F2UUtXfIY+o+hOqzWUvP2+l5fQgN5OhNrSeyaCT+C1RIgOuGH99gH/fkLKavktZQVdv+pFO37+BTuDtNFLY7uddAKQZF2T7Nt5q+1beOntbIu/Myo0+G13JraE57DNkyDju5vMSVeIWVMms6p82cRBVaHoFlxdzRiE8z5x2GsuNQtMP76eDKzfSjrlrKL5iLSp25nkMXm7sgMIjbijqhA2kKYcBsyNBebCZkPBOHUMGpy1vfrYbJf/6EzcVYVXVcRCK19/D6HeDKzug53SuAgyggWOuHm9hhj52RpJ6J6/o56jTRw3/1KnYq6+vtN/S3nt26yuz++9OTty5V4p07BbS4RxlXs9WMGqa78qVa2QbLsTqoa1BOpvmHzvElh8+fECgC68CzjYhDNjxjqFmW0jUib9V/wL6C956630yJ+FabkXCAHzwuyS/kXEs/RkQMSw5D2TspycqvEAtSrbkghrzmdiGIuGNgxCfQUEuwniEQ/D3lN84hr+YViX9SMsyfqHbd6fR8KSa3HKL+/VJZAAxf5M1yK4p2saSv1XFv4mbgtMJJUvRBx+9JRtDIN8bxR+LuJ10aVY7Txr/NFVsdiV793mTDdZMJBcd7cMY1PHs+Nk0egJteHIsJZ52JiWcfh4VO/dSbhRyjhQjZbEmADDjn8T08ZZOObKUGvM5yWuW06an75Gwn2kioqA7WvJ7gVk3YoAktEGjrZrVWRVOO8D3AA0A2rZtS3HM2cVFOUl+9N3r1evpQPtq+zl6750793DBTkNudjkmoDLrfd1gyw5AOFfTdLFZCNp9lypVSlR+PAvvvHfvAUkLnjXrNRmTW8PQ5+nn9vu57X3QQZ83bNh43np8uIT49MiNhmVf4zv83LPs2MZgAke4zv3CxIb0SpWxXPOOdtYmBBjPIbqisCv5g+SMw1wdt0WSdr7kwpmNaesplfPo9zGoG6WWodl7TpVKv1QGPjrpGx5v7G/s/bOVq+haV9pMvyTvoekTXqGbbr7esRljOL68gZpzTH/X5m109jtDqOz13AacPcTR1iagWGxoHBpfrjyt6foUbX9tOhcY8c5C3JYrlisQi51zKTsGr6AErj2QXoSQNBzmy+KCF9EK+G8k++ya9TrtmDiYW5XzFlmsBYSr6rOBr6SD+olGkqhJR5wbHnech9ZZsJvxGaQiPN9usNkggLMLqbjYcSa7vvWqtuKnqv1DhrzKTreXOOmlUshzlBEpgEqVKs7VcxPpjDNOCTTQjLQSzn6u2t/YJgsOuGrVKstYhFUyc1DJipoAbJ6h3XuVZm5mY6vvXjRW/wKyDmfMWBDY3z6c1pKT9Pclv4tCBpKw/VHJx/YcF9Agzj+m6nSqEFeBwcqNMxnwuxjwf6asoeXJK+ibpM+kFv5IFrfeiirKufsslWHv8z1m7DqRzkorwrvscAgosNGG6alnJD/Rbo62NaKfqGXv9vTK830DoRtIUIBoNm9x1P62rlSfdwCq0PRyBv8hUwmICJ46tiR0x85CXnyrbmLVfe0GLh7imDH6tjPIs9hvUOTE2qwNNKRidS+goiedTnHlK8vbS7kyS/+/Bz0gKn9MInevyaEXnG0Hw4uNdlkVKpTjhhfXccrqhay5VJX32MQ7DcEWnjVrgYTMynGUAotYF54NJtwHNjnuM3/+JPaWVxcpCsbipS3o1CkIH3roGS7EmSwZb/YW2zaQ0JMepbNz507gPPyGAaefAjYSwJgxG18ITIc77+zJpbmLxW639/fTmoJ33x3LPoFrAok46u0/WubYjVeMnaXmgSYKgT5w9iG0WKpUiZDeAjmN3et5vuT3YgBOdh1mGVtb9a34HN1cqgV9cnAJ/cyNL1bwv3Upa7lcdg879RI4U6+Y5OmbRhts73PDzSF7KlPn5LK8qSaDWHQGuzOPgX8iJwv9lrmXnr+sJL26YDyVxEYRfL1mk6md1+uBJ+jzS86kU9rdSKnsSBI7EQ4ySBhn/Mjei+W2U3u/WUm/3NrL+CWg2sOux7N5r0HUBERxA5Ei1WpT4unnUsJZF1BxLkdO37uTNvRoyck/nOVn7W7jpU66gY/ONej7jiaZkHBex/ffr5Ae70vgnGRPvtmFJtSRAK0AffLGjXuRc9xvCYmPu5kFACRmjyNlkzg60qbN/Xz/ryX2jXt5VcQh734Tt0gfMuRJNhHuCUhjL9U7HJhE03LmCJt7YJMPMBTtEKQMDYwbTUD69HlAagN0vDrm7CS/PjvoXzCbd4COt912v/R4BHPx3Ng1Qi7gS/4whFKig0Co2Dshrip3uClJ67jVVTI308DEJTLg47lCD9V5mr6Ldtp7GPitDpeicXuricQ3CbMy5ZAZBohOcX4saxe7S2TRwdmPUN2rOBWUQ0TY2stWhXHlIbYfu2/8g/bXrc1lwvx8zehTEaQMANs7cYLMxpcn0cZ+I1i6s8MMzUTAIZgZwPsPJiERAbb/Y7h9dNwJJ4rNn7JhLT+bE4igRTig8iJP0DkXI7HzU045iWPs49lbXVlKUwFs7XBsUmWxr30R2ecO4bBXX50qO+JoqMu8K3HNfUV6+umH2JnVzLNBpq3e6hh0nlDWis478IRrx1sFmS35oV3s379ftr6eMmV4CGAjUf3dz/3uu+XsQ2gjSUnQdOxoCsKWSUnwzJ/L5cBvBMqBbUaWE071eRrORKfezp17iyPUMKFjr770we9B/WCyTzBWjIy+DHTH5Vp4dMbBkcnNNNXph+3uY7mBxmFuiFGDY/hzd9akUhweNFtheefH4ZoifM9xJ0fRdUtfptNO4F1geDKxUac6x0SKAIjsue82+jX6rfU1VKZ0Ke4TwqE5SH+X/NTEIGQCrrmrD+354AuKK8314dhcBPeScBpMGh4T/vGCRU8CUUWxDZl9vzCJPUEb2gDp2WcfZy97RwY+Og5jT4KjD01xxTfwC3zxxXecM/+HZN0l8j4Gp59+Kte/XyhOLFui6528Yt4yB05GHtpZtWnTVUKDUL1tv4K+t94L40cN/TffzJO4v03r7OxnXKf0U4k7YsQETuN9jkOT6MJrtji3GbcywR9++FDGZj9Lzw3HAIIaFlqomyShgQNfkX+6Ldex2vv2WvAz/LJhwVpPb58STJdBOr9JhAG8UM03dVd1uiq1OG+oyczCqdgLgNi5CZhCef72nZgd1O+MNPps7hSqXrMaS2MTRrSdVPI7/2t3U0f6oeYJVH/kUxwS3GvCfWgV5njlbfVfdgLi3V5/bno/ZfCmkFGsIga998GW3XIp+IDDGGQxubQJN2lU2kAaQY2GTQvpZufL2yE2W0VX8HgtWnxna1y2w9GWcCGM0XkB7FM3ffockcBeTS30ejWjkH67aNHbvHnGuQFA67OzWQqWDW469KDL77x5H0sDDrcKru+KWn0U7SDdVz+L5FnK3DTUCpCieOiTT77wNG2yG7fXd77kD0MxW1UMFNsIyI2tLvVughM4B9hGZ6m/l+P1jx2oQH0PVqLd4tkPHna3HjAI3tybNnPf/SYl1lJ8tfL0Ee8jX12cZMGNEgNXO2C8i/dfnzXtfbrwvdFUrklDSoPtj9x8ANZknAQuyUSGGdvWO+d8Sms7PsF9A7miD9tUy/iD0ukoEEK6QQvIgQHgOmwwUaJECa5ke5NV/1phVXVlZLaNqyqrbWsrw7DP8/KA2zFyvDC2p77sspsdiRs6oV6mgtb39+v3oDTkVIZgjzMcWIKfm/7+F1zQTHoEurfqtpm33Zgz3Iah2T1P989DiTH8C2Bc6gTFdccq/X3wR8AuA510HNdaoOTW0bljGE372QRomJJI7+4+kUN6RpwGoWhsfeHk8g3vAMMw7MjbaM9hd+AZrO6/z97tGjUQ2w/ulaYTq+pmh44P0ex351O5U2rQWXNGURHOgkPITuP15vyAgBfbPrYU+yn6vEz/jHyL4itwx2FHNXW/to4wN5LfqPIx9NZbowN16CamH2z+aS/OSO1T+7wQJuw4+XSxa2ONXr36c0vt6YEda8JpFTYjgYmCtNtZHN7U8tqcbPGg591snrlq1Vppm6272rpDo2bsKJxBS+4L2O6fGHBiKm/NycyQNePQc9myH+V56PmXxqFY6dng2/w5Ijiiqr4c7xKAMNRwczaAzFtvUonMaJq3oybVyuRdd8XOx3dmM0/74PQXKssuwKHFdtGAsjuo2OF0qlC1Ioe2plANlvzhwI97tG/fg+bOX0zF+JalrruUzuB030y2n81GH8aGD5gA4AJoMsrOt8yUDFrVuhcd/mE1p/Bywg9qkR2JcSyLR9VuRCSwsSScdL173yeagLunfdBuDWobOdHZLe3tseq18ObjWXC4NW/eSUwlBZ/NcLyehfsjJwGhRDT3MJGHUAnqBqX9HloTMGrUJHrqqZfETxGOjpgG1BQgXfnrr+ewpsT0dwE2HLOyTQScM3r0ZKbzAL5XBWeXn2OX+nhfX/LntBKP+t4UYxjgGwIe4Nje2N1VqO2R0rRH1H1Vrq3zGPRQ95HP/1VcEt1WYRNHCqLpCHvHq3Bcej53lkVsPDvw33VXT05OWUSl2Ul1hDf3rDWwB9V4kHfV5d18o2HTmxkVJiDOff6H6EEs26MHV66l1S27S02AnOu8hJH0zstESAvVRACagweT6LTTakvL6QpcdahqrX0rG8wRPsJ5FVdjFediYxpFy0YVt956L61e/ZuACqDMCfj6fC20ee+918RfoeaWMjYvQKoE1rbZ2B8P3ncFtNtsMCA3G4biQOvva6+9IlDkk5Pdb5s3GE+7dg9IsxB913BJWJHS2Ad/pJRyzhPcO5vwSTyfvfvtD5WhofsrEzf3ciS+g0MHU2ASKJEBUzjMvzWv+BdtiEtlu5933mEJVKXKCSz5J+cM/vY9afacj0wZJzL0mHmcNWMYlWrA+7qxHQj73+39x+pDpx/Y/5tHT6MNT43gbD7OK1QOhjGG8eqHI40tBcEAdjEjuuee27lf/dOioqoN7WYAhjflHJpyq/32fTRqgCQeOPlmzVooTj4Ffk7gtwGKWPmAAaY3n8kSRFaiaV0eTvIr48P3jRvfRitW/BLYI8/9bNvuh53ep083jgw8EMhItP0dbloHaWyEDd7v3HObSDEPTI5I6JjT0vbBnxOFXN/L9lkmCZCOsJ1fJSOOFm+vJVtm72NgIwMQfn8k/JittgB84yTEOV1L/0PTiu2jMhno+svqJyS/o/ZHJPlnf0SlOHSHgpwMTohJrHsK1Zs9krP5eOGyhBEDwNkHIOAARDyYP48rXY5W3NiZDn65nGIkpOb0lD8GyW+TRdV/JM30799LYufuBhZ6vu3MC0d673OynOaZ8dKG+8EHn+EU13lHAT8S8GPRI0EGG3Heeect0tQTNjRKgbNjeBiXRjRWr17LO+7cI5mNyGEIl2wDRqjPat36RvZNDBPaAMDZaUQKbnX2/frrH8JstKAstwzb670U/EiQuvjic8X01BRkL+ain+nuwWPHTmGG9kJIjUEu4ZQvp+ehzc9IccQriIEEnuZck99vX0Wx5Q8wzLBjnu3uUzt/YsJeerDsVo7/m/g81LYkDt9U5Q0gI5L8ovZ/JM0hpHsLO9fSWOqe0PkWOuWVJyiDQYGOPIEDoTNmCLHYNIRt4k3DJtG2N97jqsAkEyZ0Do1c5HYmbA3AMIB9ksaKTD/Y0/jezmqzvfnZPUvvG3otwEL044+ruEnmQK5lX8HALx2IrecEevt5uC+85chMRB9/mCzYkFOBhp9ekl/LjcHc0Dm3e/cnReqrNuA1BvezYGagAMhoR6aaLzsHpTbzhEPzkUcGyh4CuXnXnOhs/B8pEvJEn4MMbgAbrlLQBj80vnHjpnItxYvc64A1yVxqj7lda//m/DwDPwZhdrVh8PDihjoP1f/s1AR6cW9lujQ9kfZLzh/vmsMsAPF87o9La2JS6KYKGymV1YZY1P3DQcWfJ4van1vwI6YM9mHy+dMYzKeO6UeV2zajVI7/S38+2L9IGOL87+S/NtO6R4fyDsFfUiwX2ETFM4Ow/JDHMnG6EOyfZkvsA/I+9957O919dzvJP9cDC97E4E0cxFavTSqD4aoGMFwpafUiPM5x3gAAIABJREFUQPrs6NGT6PXXp3Go64DcV+P57rHktODNs7Evn0mZ1cKb3Cywp58eykxuVKCIyAuQQRMDIIeWFSUFRdh+O7cHmoWA4YDZ4MgLtV/NMyRdXXrp+bKTcW4OVFE+/PCAPB1Tbp4f6bl5Bn4J+zlNO9SrFstr9hCbAPH8eZ/9vPCT2AblkXECreT045pW5TfRD0WSJSqQzmtfogFO/7Tcg79k0MZFlh/bvzFsCtSbM5oSTq4ubb5iEopwBV+ixPnX9xlGKf/sYEbAewoCZU57sMCCzaXar0S3QacLEmDC9ljwcJ/AfQiwSQacXDU5gcluzBHJxEEtX79+Ezu5PqW3335fSn1NxSA3T7VClrlxKCog8RMSHExl4MBHeH+8ywI198JUXZLMSHdNqcjiOoUXaenSZZIhqJWK2fkJ8Kxd7JjFs5Dsk5Zm8jm8nqW0FEEjmX3R0qTk119/D5sBGQk93efo/GGu6tU7TSopbYez1/vgM/W7oJR52LDXRPJ7Mb9jGdPxuCbPwB8yOIn4GRUfDjS030K8/6akUvQsM4GqHPbjejTqW3I7jSixi8pxu66MQJo/S34mJLK2/hX4wUTQfJP3livV+CI6Y8qL3Ko/ntK5oedfg9+gLWPeoRiW9FFsl0oikHPoxP5bCeLlnFOJDskM1RpgPeus02SB1alzEsepK4rpgn8o4YWEx7lwikFz2LFjF5cyr5PKNcTSQSM4OVUTsJ12xyoFbZNFF3xO97KZHRiBpu7mtPBDn2VyBHJ6ls0ATO6Gto8Lhuj+LVDscdm5GTlpgsZXYJyidtOUf7uW/u37hLs+T8EvRHNAHJrww1yapf8ebsaJ/P7Re6uISdCBk3kSWOJrVA0MA111QDwFP3q8I8nHdrjoolKimlCfsflt77acx1IkdcceqvFMN6rQvDH90W0A7V+2guIYNLqQpALQ8ba7AfRvCG/fy31/3RUX1XpwLIEGyP9PYM0EjjJ8r+EwePCRK4BOPgAkNryALa59/cyiCya2HMtisxf80RpDziqQF/3C0fLfPstmEEbzCL5/TgwnkvnMjblk30+vC9d9KJJn5+c5eQr+wMAh+XVzDaj3+J2FK1xu6MZbjAEfx8wgiX/XJh625LXBH5nDr4cDfmzHbGLaR00KdnqBWrx7v6j5xvYPnpUbFTm3E+S1mBQAkHZ2px+M34QFndAJ0w/nQMXVvnSwk3XbaTsCkBfvcKwLX2nixfDC0evfPsvcV82OIAPP7fwcj/Pz5t2Ox8isNV+1av3QVLu8ep4jLEJ8AU5un7jkoB4G8miCO/Eo50YJLEpZ4WypUcPk9qu3Vc9RAnfg3P45cz4WZ5e7uCWYQOzY9CgLtmx7Dfsdi7TMDanCaRZuKWhM6mACtBtUbmlqj/t4v0Nu3ve/fG44LSYntd9T6FhaZUGjyfGR/M5bBoDv7LQTWJzKbhxk6nbYiBaoFETeN+rgP/74HcnZzu7o1OlhiW2jltu9UYMZA/AUTO7XPff0s9xOal5Nopf6m9297XHmRsLmZrzHuvCP5bpjucZmhnmt9eSGTl7n/pv3+bfPPpbrjyv47QGFqkFGuskCRuq9tQefXgMQI3zTqlUzSduEqmsm25yhzh5s7bRgwWL644/1Yit7gcJcYhyQwgfUPa0/j4Vy/jU+Bf7jFMg38Dv4cxL/HaoFSuaCVLTVdvwOZ5gCP5SZgAGYvQHgJEPIyD5CpLkN9iDnMBzEP3wKFFIK5C/4cyCyW2rj9EhbSP0XHCyFdI35r11AKVDgwO/2WNt2cTgaumPzvuOrgK42f1gFigIFCvximXvG241679bS/2sOlgI18/5gCj0FChz4C/2M+ATINQWyM/l8czA8OfMc/OHizu5JcMerbamvw81JfXc/y/jygk48Lx9CuEQYr/GFnhvMcotksYXTYiLRVrzu777O612zq4ILpW8wMcamNbyxXtqVPivcfHhra7nGsFyQW7CGmzeve+W0no5txP/dq/IU/OEWtnvxZAda28b3juNqU56jt5rW8KGbsXgxpHBMKqdFkx0TiwTYbiYXKbMMxxx16WWXq+BmgraPxM1E9DnBJW0YQiTAd9/3WGBhM9ycwOo1F8iCDNKE94jk2ojc3PNYxvxfvSbPwG9PBDz0yMbTDRSRqqohPPeEaZ84ZPDhO93YAumrSHU92pkXjNDhO5P1Z7aHwvXIiccC0OttxmP/bppLmiaQON+9iaY9TpyrTSn0Gi/HpH6G98c/3VAC13pLKEQzzF4EoRI42NfPFLtwcRTTA++Ge+qBcaOQBPS1N8awF6PSFGNzA0FTi3GtGYMBOp6Dw8wb0o2924aFc7Tq9bkFhT3nkWoAtrAw3YcPyDuYuoe0kN2MvRhdbsf4/+n8PAG/e6JQiIIMPZSuop8cOtkm8HZbbomM4h3sbIPkHK1vP3z4sOwuEx9fhJN7EgUcR0tUAD5TtmbCc1A6iSxAMAJ0s9EtodHgQZlLqEbBXYW5vTfaU6F6Dtegv7xu8+SWoji3TJmSUmxkCmtMY0r7sJkBmkCgEKd8+XLSFQfjw3Pc14DhYfwAMUpyve6J3XwwLtAPZbYlSxY3W5IxWPEdSmCR54DxezFYnAuamgrA0jJkMAzMETYGAbCxQadJkALgM6QLjwIexUaJiVwG7TApN23cmpopQML25x5JHGGRY8wQvCcSutx0DXdZKPCj5H1uuOEq2dkIa2HJkmXcH/BdafThHuf/JxAf67vkCfjxcBAXiwo5+bVr16CXXnqSc/KrCxDRYeann1YFGAAWKQCCRgnt2t1MdevWkcUPbo3usf/8s40+/HAJb3W1UBY4drFVrGFSwRzQWgotptECCo0yddFA20Af94ULP+O6gEVSKw6w2uBEk4b77ruTt49G+6do7oKzkjvtvsxA3SWVdXbrKYyzZ8+7uf7+ZtliCu2ZvvjiWwGhNqBU4ksHIr73qafWphdf7EvVq1fh/e828773z8jGnLpDL87HffE9aLBpE+9kzO2nITE1vRnSC+/ZrNk11K9fL2FioMmzz46QOnmA9YEH7uKW1Y2EsdidcpVZanEQxvnJJ5/LjjZgNJgjtEZ7+OEusiMvmJP26cO1qDSEJoUGoAsXfsrddb+X2gowIFtLAU2V4Zh3T5IdhtC12DQtDWZlHu1LCGZcY27xflOnvkdohBGOEbqFgNId4wDTwbpbwA1fsemp0VwyOUO0Cy1e/KWTJRpauu1lDmVnuuXm/HCCIZwJdqwA/jfX5Qn49YUwgZCiKMO9/PKLA+P6/ff1snkEOLvpMhNDgwf3EUBlZ6v++edf3PWmN/3886+8uHnDT+70ASl89tln8vVPcH+1+tm+O/acf/LJF7iT7HzZ+gpZgNBEsMU1mmraB56BPe1M91pjEgCgDRqcwwB4M3DqmjXaM860+3KrnQD/woVTuP3TeYFrPvpoKd1yy71Sew8VHu/QrNnV0iMPpbk40O22Z8+nhIFCHcd9sPXUZ5/NlMYYuih79x7IzSXeYJAMlT57uTk6dnyQGeqHXPpcgnfleUeYZs5HluwmjFZZv/yyTugYDgRgvK+//pLsSHwsBxg/Nt9Acw43o3GDSf82vQCxffl2aZY6atQgMTfxOZjiK6+8zmMfJIwWDMK9Y5LOYTi/gJfG4G3CGUezfmePN6d74Nz/RX1JnoBf2x5BlSxfvgwv/qksWaoI58dChvS96qrWogUAUOPHDxbVTHeMtQmmhMK1kG4//PCzNISEOop69gsuOIe3n3pVAKFda2ACBCdVpkBor86fPn2e4y2qp8gW19jFZvr0sQzGG2SRAOiQkJC6/fq9xLvUjhUTAs+DGolxvvbai4HGm2io0bJlZ2mqUbx48UCfeDwfjAMaCN6/du0T+W/4E6Kl006DBs1kTHhnaBezZo2n+vXriYTFxIMxNWlyO7/vSqnX37//EP99GU2bNlZohgPMc/jw13mM47iW4SvZEsyo57J8xBTShWRbJdos87nnRnKnnQF0xx3taMKEITw32OLbdOV116Djb+NPgK8hjsG1g9/7bgJDxrzY4MMcg5bQ0KZPHyMtv7VRqc7t0eaCaU/mBt0dd3SXWg3dcNMblMZM0LUSz01Z/vlnu2hzw4cPkKHp+MEoH3pogGg6Cv4gvZyqD4dYbj+OfV7wO+Nw9tJCTBu2UEe02y+iDMJtAnsxjWNhoLm5Jk/ArwPHQsbGCdqAQ7ugbNu2kzusthZ1/rrrrpA97KAB2Du6uAeN79VpeM01bUT6A5QzZoyT5pL24tJGFoYJmG4weDbGpc62Fi06cTvpX8VunjRpGLVt2yLQdkl3ptm2bYdIHvyE5IHJ0aJFEwbK0AAjw3ctWnSmdevWiy1pq8Gq+UBTuPTSCwL3hw3cqtW9vJHGCjFtTjmlJtujMwP1CEqnF14Yxf3vRouGcPDgQdYE0PX3QbkP3gXgv+eeR6V91+bNP1hOSNPMIrsDmkTz5h1Zk/iC7r+/I40cOVBO10Xofb0BGYANKbpkyVfMNLuImeD2T4ABwFfQv/9DYk64a6a8/Bnu8W7YsJHNmHYCUpyPn7bjFkwd84tngfHhJ2iDsWHLb2h0aLmFa7XNF5hl796DqFq1yrJmcA/4ipTmmGd3qTgACy0E99beCupcxrm66ar7nUBjNRlxXzAP3Ed7L6gjvEgR7mUtTUqP7iCVG/D+23PzDPx4MYAf0hXgr1ULks80goRK1qTJHaw2/s7gHctqYZMA18d12EYath56pp155ikMwMvppJNqyLtNnz6XfQbPij3eoUNrluDPi7NKPcq4fvbsD7iJ4xyxZWFDd+lyhwBIG2NAcmFTj/vue5y1kN1sW47gnWsBfpggpnOQbnGF3Wb69n2BnWAlpX3WzTffIODHwjEScHsA/DBF1K5VNXPz5q00dOhT1KPH3YHv8Ayozbg3KhXBADEG3eTCFC5Fi10OxgJ7GV7rd98d5/S1M4wSPoDmzTuw9N3Ifo1vAwsN44d2MXLkBL7uYGArbiOtjPr7zTfLpfJxL29pfvfdbbjp57MCEumrwBILzrGxYyezSVBaQIc5uvHGq4U26mDEO55//vX8rN2yeFUaqrZhaEHsdGssDTzxN+iGVmV33dUqwJAB2pUr1/B2Zu+FNCNdtOgzZmrbAlEG+E7OP/9sYZbQKlJS0kTz+P77Fbxm/pRnKXihmXTpcudR4H/lldeYGQ1i/1MV0aAwHmh9DRqcR8uXrxa/krYrMxGaNHGOontUvXpnsD/qNKZfnJzz229/iu/qjz82iF/CRIEMgLF+mjS5gi655HxusbaG1+SHQlt0/73oovNEm9vNG8PChMI9cOCd/pcMIE/BD1Bi+yWAHy2qVe2HtLzmmrbi9Pryy9myGPQ7XNOsWXt2ynzGJkMlWfQgfPPm14rEWbDgE1H3MdGDB/cVBqDmAhjLhAnTedIfE4cX/t69exdL9ZZsWrzk9MEzEhFSvGHDlsyAfmNGMZpuu+0mmTB7EQMM4PYwUeCnQBdbI/lfDjAyI/k7CZCKFQvuhoNnYPGAYWCP+7feGing0H72aLTZkfcULMubhKCP/2OPdQ3cUzWnLVu2sVnTVMaE4/vvF4ompff46aeVYgJh0axd+3lAq8F7f//9zwzWu5woRlzAEafSHdIK/gUwp86d2wn4cehOQkOHjmMJ+QRrV1UFJDBZMI9XXXVpoBswmCW0sDVr1nlGL1QSwVxCv39I6aSkw0yv6xlkr4eMd+bMBbLTjlZjggZow4Y5AfN74oke/H2LEOag9wdgpvHGrM8+O5K1tJ3CqDdv3iJq/4gRAx3JjxbgMWImoZMu1H4wrVGjBoqjV48XXhhNzz03QuYFFaQwabp168j3ukPu6z4QnRk5ciK9/PJ4mV/4G/Zyn8iHHrqXHZ0PB05///0P+PsYZqLXHnUPdBtGa2+sFczL/4oB5Cn4IcmgmocD/8aNm9lTPps56umBuDIANn7820IMaK6QplgAUCGxILDrjEonqPxw8hlV3niIL7/8FlmMxhFlQlWwu2bNek24rpHupg/AVVfdRp9//jWDfyxL/uYSB8YCVa81ZgkLBg46bHeFiUW//YkT3eC/2wG/kfwq+Yy6mSmL+LvvFoiU1+2uvv76BwEuzkcfeEiIYO6AUdthHmB/PUi2c889kz79dIaMXcEPaXL77Q+wo+5klh6LREJCsgP8iFjAJjchzCD4Vf2GfQ91HQwGjjGV/Ap+2MY9e/Zj9diAH9IPfgloYXgH0Agl1Jdddqu8ux25cNvz2sDThBmTRBOYPPmVEPDPm/cRM+3HAxoc7oFnAnCY57PPPkPmTn0RRsU2zTFBE7zzunV/8fx0EMYOv5KX2g+H32OPPSuSum/fnszgusj6UuEDKXzbbfeJKQANCXSBwxLPw3n4qVvDYwgakUFv/scff07mGuFcMOpTTz0poO0pU4Paj3Gb3YNNezY85803Z4mDF+tW/QT57fTLF/BDJYMzy0jdMQyspgHJZBZVlKiBEyZM4wX/ldjcIDpi/5D+0A5g482bN0UYBxajbkB5xRW3ipplwkPG1sf9pk4dxaHAi0SCGcdVBkutdtxW+muWGmMCkt/2OygHBiDuuquHmBJYUOPGDXZJ/lDw2+qvLvhPP32XzjnnzMB1CD/efHNnXih7mFktCYTmADRIcmUgjz32HIdJh7Ek6c4/n3Jsa7SpjmEJNVKYJO77ww8LA04nPB/3f/nl1yRvwGxb5ex77Kj13367XCIde/bsoU6d2rL59FzANgZ9pk2bI85O5Gbg+pYtr+doQjAag8+gcjdqdIvjYAwmItnMT2lhQGNyDJo2vZrnY6Rjhhnn6pw5i2RbMYBErwEAhwx5UjQTMAKARDUqFZ/GVAEwTbgTZiE2CUF4EkwNvgzj6zGbf4wZM4kl+YP0zDP9efNQ+E+MqafX472xmzG0y0cfvV/Oge2OZ6tJaItuMA31MzRt2l6YLjQGaLRYm8rQ9TnakVjXJX4qwwUmsMkK1rktRI5SFY7TB/kCftvhB5t8wYI3nUkw2Wv2BAPsc+d+xJxxptihADXOgTSDF/3MM+uIOg5uCcJefrkBP9R+HGqDv/32aP4O4DeMAkS/+uq2DvhfZfA3D+wNB+AAgFCx1fZHlAHbQKnNr9LXqP3ekt9EPaD6H+bF1ps5eyfn+cj4i2KJ0lHab3/zzfyAFIQv4sorL2YJYlpwQx1u1aotM543WTu5KaA5QILcfnt32ZDy1FNrsb36UcCppc6r7NYI7FSEMtHvHxuHqOTXa7ykjmoyYKqQbj169JOYuZmT7A83+N98c0SI5MccK/hxJ4ARSVFgamAI2gIb4/rqq+9Zsi5npleP5/TCwIONM463gGdzDiDs2rWDZfMbtR+biKxcuZq1mImOYAhmdULgtG/fSyJAaBM/b95EjtLUDGgFeBD8SWiVft55Z0nOhYkOmXujPz9C0Tg+/3xWQKPVdwdDwXwhiQoalB7qQH3yyZfYDMGuSGaH4vz2+Ocp+LOz+a+8srX0qgeXfPHFJ0Si2p12VfU2XlXjsR8zZjKDaJgQGw4TdPKFv8CooUZFB/ixPxy+xyLNDfh1Hzqo5JhIOOpguoDjQ01DY1BM4MyZ4wMOPy/wh4ZzVNo1FmkHmuB7SLuuXZ+QhT18+DMBL/Ltt3cTVRThMRyw3S+//GaWJHNE9Vf1FNoT3hW78lSoUJ4Z3ieBcBausyMboe2SjF0Plf+22+5nJ+L7LAnvZgk5KGTBGYmkSTlGxdaFDlpAq8A22NWqnSD38w7BBRlCpOA3KcrG5IGv5O23RzkhXKR6x3KC0Q/CbOGohc8CvoPGjRuJ8FBnJJjSqFHjmNk+IPkb6oXHT0RYqlWrwjkTcEBi3GbdYCPRtm0fEEcp/j777NPZ4TrdSZ82G5dMnPgua0n38EthPaaw8JnPY7xSno1rNmz4mx3MLURT+OqroC9L1zLAPXjwMF6bpZh+/WXN60YmuP6tt2YLQ/1fbe4REfiVIylRbSkhppiEYIy339vm38n2ditJAIKNDSn21FO9xDurKq8JZ4Xm2cOufPXVKWJbIe47f/6kAPhV7XeDX1V3L8kPp+OSJVD7jeRXDz7sPkjFRYvekvubnWnjxKMMD/3IkQMErFiM2YEflDC2a7Jkmy1dOktsY93A8aWXxtLJJ9dkbeJ6uR+812eddaU4/6Cy4oAU6tq1rzCIOnVqB8wGqO3QRBDFQCrv6tWLcyX5MQb4R7799id2Zt0lyTB2qMpL8istcR5yNLBYBwwYdlQGXjitwVb7w0l+gAB0hY/njjtuEY1Ea0HAfCC5Bw0aIVIVGl7v3vdzOPRxAbJqB8jOHDDgWVbfe/JOOf0DTA301BCmagl4HrSXbt36ihkElRvr8rLLLpLtyTT3QzM///xzkzAdjO+CCxB5OCkQJsT1113XTnI+vvtuIc9lncB8IayN8DaEHUyfK6+8hH0Z4x3tB8IAmsNCCd2qiZG9LpX330YEfpUstoTToYCTGqdSlIDfHecHsbdv38H2twE/JCAmF55OEPP++9uLDQui4rC772KCAUIQGBtRfvHFe5w+ekrEav9ll10YWCSQakfb/CZ8h6y9s85qLOowvMUmucMkCa1YsZrDPafL33iXnCW/CRuCqc2cOU6SkpTJQEMBeLH1OCQr7t2gQVPeWfce1oaelIUBB9nbb88WRyPOU9v11Vff5IX/DHuly8iCXb360xDJD8mJkKkxc4LZh8q4keOO7D5oX506tQnY/MFIw3YxCTBu3asPmZSYL9U+QIOuXfvQlCmzxDtupze7GUBuJL/uZXj33W0ZvE+HmAf9+wP8wyXcByAi1XrIkH4BDzmeCwYxYMDzTMfuLGGDkh/jVQZm7Px0WU9dujzK7zBT/Bv4DDRHmvjYsS8I/XRDFS+mZoqjzHoHQ4QT97vvEL77iE3SUwM2P6IqsOlBb2iP8HsgAmQS04xWA5MCZsP/akPPiMDvlvx2QohKfgP+NAnTuOP8AIxm+JmdaODkM3nwcNTUqlWVpdKl7Ai8QfaGMzasuR/AibAKEmAWL343xOGH+1x2Gbz9f0jxieZM4Pq33hol3FY3wMRnSODxkvyw/a6++jZZzFDxcZ0yoWACkdFusgO/2t5YHJhwhCbvuaddIJ5vWAqcVWaBwRnVo0d/iQ/juQAe3hmMET4AnKNZgu3adZPkHiwUAG/VKgN+1Zbgo4DnO9Tbr9loUHdjZPdeSCQvb78J9fVhuxuZcLyNKmthsKGffvpB0V7wLEhiqNFXX93GybAMLZe1ZVNuwI8syD179su4oB7bAAGwBw5U8G9k6d6ZHaHe4O/Vq7swD7f9rPNiIgckEQ8IFCR84d0QLUDSF5ygqqVF4keBsxba5HffLWcfzCKukzDgh5AA+LHeAH4T8YBJM1rWI9YtaInoTefOvWXe89vTDzpEDH4zsSZpBKBVdR2JOUiCgOqChQe1FrY5uKrtJLvyylYSwwdR4cnFBIHwCIdBYwCRcM/+/R9mQHQKxOABuMWLvxD7DPZew4YNBKS4D7j4DTfcyfbxd1LMAdAhxgyHFFQ4hIvUzsPzYHqgKAcps7baj+zBa69tKxIaOfm4FqExDfGo5hOJ5Me5AO327bvEaw3vs+47r+DA4sbYO3V6kL3V8yQnAslPZ5wRVBtVJTfqahZrEDdIii3GBOmvaj/mQ21Y2PTuUJ9xqJqICsaFRWmDXxf56NETJR4O+xgLFL4KMPYff1woefFq5yK8hkWtqbLhnFSRgt9W+9u3v1V8EVpKDOnYv/8QjnKMkuSvX39dJ5IfRWPqPcd7PfPMy/zvWZb8PYV52DY/aK4MXEujcV/E2iF1kZcCjbRx44YB3w7GhGtgaqG4ydRfGKexJi7hHID/5ZfHCU3hxIXar+D/++8twmDAyCEIFPyakm7A/wGvkUcKPvjVwYOXe/zxbuwlvVUWNeKdyM7DYkhNTefEi0fFllci4Lr16zeKYwSTgo04oOZiAeO6L7/8Vjg9Snh3794tZgBUbyw+rVdH+A+pqVD3kMgBZqGOos8//4ZDUj3YIbRP4tCYtD59uvMYHwh4yjEGxIGhJSBL6513RjmhPqNZQPJfeeWtUqm3g/f1Qy5/u3YtAwtewR+U/KFJPjbXxgLBPaESIpYPiW72uDdZfFoqC2cjbPjfflsvtINUaNq0sSvxyGTfrVnzu6S9GjU2QxgdHH6qdWnGHLQD2KaakabjUocaFhzopBl+qhbj+rFjp3AW4lOsuaEmI138Fqi4BNBM6NDQFjH+xo3bOOaU0SxELKit5HC4SMGv82hSqa/j1OtXZN7A1EBHzW3AeQgFQnU2UZCgww/Zk0OHjmCtoFuI5MfYYFLMn7+YzcWTOWv0RMepaQRZhw4Pcubnh5IlCJ/CJ59ME80Lr4LnwSbv0OEhBu8hsBBZXzi3QoUyoh1Bay1fvqxk7i1bNleqU92S34DflBpjjm3w49lgQAVa8uvk4iWaNLlSMuS0cALfId3000+/lGo7VMGp2oWfWDiTJ89kUD8uqiycduedV1eFIBP8C9lxFucCfEi7heceXBrMBBrFiBETJBaL7D5UjSmBdXIhud94Y5pMEsYH+00lg6pxU6fOkgIPgHLq1OHyHE2vBfihFWBiwc2RB7548TRxrGmsV8M7dnqv5vbbvhBd9Jhk5CZAW0Etgtruqg3Bq9+mzf2y2BD+A9OEM0s97niuSlvkP6AyDRoNvkfi08qV8PZjcRsHBc7duPEfYZqa1KRMC1oG3vH550dK2Ovee+9yvP3BQiCowKAjYueQ/PArILylDELf//PPvxUtCaEx8yzvmgIv8GvDFIDaHeoDHZCF9803c+WZSnfcB05fJGddcsmFvI7uFKag0h3vihAu1l/37p2ksEe1JTC7pUu/YcZ+C8fwH2DT8YmAP0G99XgXvDu0G2is+KmJYprwhbEifIsci41UAAAKWUlEQVSiNfin4PE3oc+nWBv5jbXNZAb/+44z2qS0q9rvBr82Y4EW9p+Q/Ab8RqVGXjTKSSEZsFDUFlQ0a5KDLmIAA/b+ypW/itRfvHh6oLuKZmoFOIHzi5k8OEawsLLEE4/c9ISEePHUo1wYINX8fg0N2mPQRYtzwKGvv/5OToTZJB7eN98Mgt9I/rUszW7l+5tcAUjPPn26SYopFjjAo+otwI/yXGgQJoPPSCC3MxT3RRgJSU1I8dRMP40kwOGEMA+ADPCjxHfy5OEhz9Jzu3XrxwxrpjAjaFtB8Bs7XI+c7MYZM+YzY2zPnm4TErPP9wKxhmKV0YPOqLqbP/+TQH18uGfa4EeGH8KeNvhDk3yMBpGScoTDa6+IsxPakCYAuZ+B9aGmEzQ/mDtg6l4ZfoMHj+ZqzRclPApGjDx7vJdWcsLv0rfvYGGkzzzzkKRewyzFnONwry1dV6DXrFkLORmsp4wTcX47bV3BD40GQsmEMYOS34D/P2LzYwKw8JCQgKo8SG+T7WTaSpkF4my3zROp2Vnw1CJzDGmQsOsBXhS2YHFo3bVKKDxDwzfwB+BAeubTTw9hSVRKQiYnnlhNSnpPOaWWMAa1TdWra+5h2oiBA+MZPXv258U3i/0Q5cWjPWXKcE6kuVHeB5O8atVvLM3aSJ41rgdjQckwtBREIbAYTHw4Vt4BthxSlbXm3Gtx4v3hXENK6RNPdHO8zkjVhcc5nm3ZoUIXSFA8D8BGViAKo4I2q7HnmzYF8/tJaKjawGefzRD/CrQX9cWoCm4zU6OFobiniNiwl156EzupGrFfY5I4D0EDTaE1NDSaBN4X41SmgLnGXDz77PCIOuMos0SDDyz8iROHhXjx58//mKV4n0BuP54HXxJSl9977w2xxTF3mhKr9zPrI1rmDVIV9Qyow0BBk4kWGJtf1yNyRVAYhijLOeec4SSYQbXHXBjNBx57MJHKlSsKA27Y8AJnfaY6TlXTxgz0wb1BN8wLaguGDHlVPluyZIYkoCmTB/hvuKG9jBEOPzh1p0wxiU7KVMAAUWxmZ3jac3e8f4/I4acqNAAF1b9mzRPZCfOYdJGxGybagwU44A+ALanljSAM1MmhQ/uzNnCJLKJwBxwmkyfP4Mk0XnB1WgGIFSuW5fDPY7yILxdTIdyBHPnnnx/FufqfSxsuLGbE0d9/f4IUDumBz1CthvFgcnAepPHtt7cUh52WcOJ8OIqwaM3+gaHJLno/kxMQIxrHxRefz176YDMQPQfaDCIP2nVmz5697P94X5yU9gHtASnMu3btdToaZQlIYN6goQnU1EgOgPy++/qIqonFiu5AiES422aF3itLCmeg5SC8N3PmfNF2NLyr53pJfzUTIPWQJQlt0T7w7q1a3ScgVn8SAAWwoM8BYvma+OT1fj///Iv0X1i6dBmr4+WlY1KPHp15bfULOX3s2KkSnkSVKSpDEYGBX8k+/vlnq9R9wC+E2oKBA3tLaA7M1uvAGoTUfvTRQcIEdu/ew+r/UulhoQfi+xdccL04YKExQ/uD0LGPjz/+QuoKsL7DmU+RzO2xnhMR+FUS4SEYJBYfJhcVX7DxkRKp3WYg7RB6W7Roqfw0hTnGK6ThQKh0jRo1YO2hnkjWSpXKCeCQ/AOOiXg1bEskdQAcoc83IUAQFOm7l1xSX2L/6u0H0eGRXr58Fbe9WirMCqExbaYJQCKcCM8szsXiQx4C0mxtRqZOMiR/4D0hkdeu/UOqCFX62kR3q/34zkQ04ljVbs4/TVNR47hKEpsXYwOTwLXwCF955aXseDJJRpBcKPpAWu7HH3/uFIY43jW+NyTqySfXkpJX0yHIHDYQjdQ30Qc4DRcv/srJJjM17Sh8gqQFoG0a4z7QqDCXmA/kJ+CdtcGGZhBmZ2aY+0XJdYhmwOEFDQefm/f6y3kv0zVJ07wBJgAGTlI4QPF+aIyiz0KsH+m2Cxd+Iqo+AIrrQVPMqYZ38Rm0L4RAkR4MzQrnnHBCBanUDGo7WU726CeizeE5eP6llzaQ8nB0O8Lc43Mw4nXrNnAW5kphOtAAoPJj3aLpC87TyA7eddasBTKX+Awaa7NmjQOaKmgApgqfl667nMy2YwV5uOsiAr8uZOXQyqX27t0rhEclntrfeGksTEhRTKDdbVYXJ+6DsB8WBs6Dd1rvDa6Kf8jVt6/X7809jC2G2nQ1RYyNZtQ9TDKIDtBDVXenEYNxmLRbQxYAEIvDBpDarLD/sYjhvAPTg6ZhvN9BkroBZxMbTBKLSWmIn1BdS5QoIaaJHvgMzCA5OTgus4DjBJz2gbFpfT/GpJ5oVdnd5+JvjNkAxQxcE2t0fry89fgMixvamuZdmLk3wFZV3Gtx2Qxfm4UqvfW9sG7MZyaErGPAWDGvCMEBYFgj8LTjME1bj8i7QGDYBTFYe5h7WzNBc1OsJZMRaBJ9oF0EzzHqPPLv1ceA52PesYZAe6OdmKYmWDugPZzXGDPexTAMrGej0uscY03hOxV6prGpOey5VZMiv6V/RODXSXb/VGcIQKyTAC6mTQ7UDtcXtgGszAKTod5Z7V+HexinjqnAsqWSfQ+cp74Iu1sKUidxHcakk26PHePWlt9mIoKtr+0Fjd81I1HVWNzTazxuBqDjxE8v00idX7bGoG3LlbFgwYGZqV/FrV24z/cCYfAz06tA39eMy2gdXr4CgaTzfH1n+52yA779DGWi2hcxeF/jtDN/B1tf2QIG1+AcW4CY1uzmczW79HmYc/dz3O3A3efoeLR8V+mlawtl32acpk28vW7tsZvPHWliqOyELIOFa9nRQO+V/Rzm7bcRgd89mfYi1N/tz2yubw/XDSzl+kHghPZmsxeb3sd9DyVabu/hJqP7WW5GF3y+AYXXeLzo5Fan9To3kG0AeI1N720vknD3DrdEvN4xkuXk1goiucaM19DKVuvta4M0CNLUpvvRc2sYtb2+vNZDdnOb03zY8+p+vl579DoO7dvnnmP3Pb1oEClN8/K8iMHvBvGxDMKLw0eyUL00j0hAoAsvEonlBXb3QvQaqxcwvBaw+1o3g4xUhfZiApHORSTj8rpXOEaY3XMjucYNYp1Tr8/dgMkt/bwEideajoRBeq3jcOsgJ6BHQqdI5ze35x0T+HP7EP98nwI+BQoeBXzwF7w58UfkUyBfKOCDP1/I7D/Ep0DBo4AP/oI3J/6IfArkCwV88OcLmf2H+BQoeBTwwV/w5sQfkU+BfKGAD/58IbP/EJ8CBY8CPvgL3pz4I/IpkC8U8MGfL2T2H+JToOBRwAd/wZsTf0Q+BfKFAj7484XM/kN8ChQ8CvjgL3hz4o/Ip0C+UMAHf76Q2X+IT4GCRwEf/AVvTvwR+RTIFwr44M8XMvsP8SlQ8Cjgg7/gzYk/Ip8C+UIBH/z5Qmb/IT4FCh4FfPAXvDnxR+RTIF8o4IM/X8jsP8SnQMGjgA/+gjcn/oh8CuQLBXzw5wuZ/Yf4FCh4FPDBX/DmxB+RT4F8oYAP/nwhs/8QnwIFjwI++AvenPgj8imQLxT4PzvSpUKosleoAAAAAElFTkSuQmCC;" parent="1" vertex="1">
          <mxGeometry x="-353.35" y="-730" width="126.71" height="80" as="geometry" />
        </mxCell>
        <mxCell id="Jxjm6EtdGCbH2TAaKVnW-27" value="" style="endArrow=none;dashed=1;html=1;dashPattern=1 3;strokeWidth=2;rounded=0;entryX=0.63;entryY=0.96;entryDx=0;entryDy=0;entryPerimeter=0;exitX=0;exitY=0.5;exitDx=0;exitDy=0;" parent="1" source="Jxjm6EtdGCbH2TAaKVnW-23" edge="1">
          <mxGeometry width="50" height="50" relative="1" as="geometry">
            <mxPoint x="-140" y="-453" as="sourcePoint" />
            <mxPoint x="-277" y="-484" as="targetPoint" />
          </mxGeometry>
        </mxCell>
        <mxCell id="Jxjm6EtdGCbH2TAaKVnW-33" value="/api/tdg" style="text;html=1;strokeColor=none;fillColor=none;align=center;verticalAlign=middle;whiteSpace=wrap;rounded=0;" parent="1" vertex="1">
          <mxGeometry x="-260" y="-620" width="60" height="30" as="geometry" />
        </mxCell>
        <mxCell id="Jxjm6EtdGCbH2TAaKVnW-35" value="/api/pasantia" style="text;html=1;strokeColor=none;fillColor=none;align=center;verticalAlign=middle;whiteSpace=wrap;rounded=0;" parent="1" vertex="1">
          <mxGeometry x="-270" y="-430" width="60" height="30" as="geometry" />
        </mxCell>
        <mxCell id="Jxjm6EtdGCbH2TAaKVnW-40" value="" style="endArrow=none;dashed=1;html=1;dashPattern=1 3;strokeWidth=2;rounded=0;entryX=0;entryY=0.5;entryDx=0;entryDy=0;exitX=1;exitY=0.5;exitDx=0;exitDy=0;" parent="1" source="Jxjm6EtdGCbH2TAaKVnW-24" target="Jxjm6EtdGCbH2TAaKVnW-37" edge="1">
          <mxGeometry width="50" height="50" relative="1" as="geometry">
            <mxPoint x="-190" y="-750" as="sourcePoint" />
            <mxPoint x="-140" y="-800" as="targetPoint" />
          </mxGeometry>
        </mxCell>
        <mxCell id="Jxjm6EtdGCbH2TAaKVnW-42" value="/api/users" style="text;html=1;strokeColor=none;fillColor=none;align=center;verticalAlign=middle;whiteSpace=wrap;rounded=0;" parent="1" vertex="1">
          <mxGeometry x="-220" y="-800" width="60" height="30" as="geometry" />
        </mxCell>
      </root>
    </mxGraphModel>
  </diagram>
</mxfile>
